# Goxel 0.15.2
v -14 0 14 1.000000 1.000000 1.000000
v -13 0 14 1.000000 1.000000 1.000000
v -13 1 14 1.000000 1.000000 1.000000
v -14 1 14 1.000000 1.000000 1.000000
v -14 0 13 1.000000 1.000000 1.000000
v -13 0 13 1.000000 1.000000 1.000000
v -13 1 13 1.000000 1.000000 1.000000
v -14 1 13 1.000000 1.000000 1.000000
v -12 0 14 1.000000 1.000000 1.000000
v -12 1 14 1.000000 1.000000 1.000000
v -12 0 13 1.000000 1.000000 1.000000
v -12 1 13 1.000000 1.000000 1.000000
v -11 0 14 1.000000 1.000000 1.000000
v -11 1 14 1.000000 1.000000 1.000000
v -11 0 13 1.000000 1.000000 1.000000
v -11 1 13 1.000000 1.000000 1.000000
v -10 0 14 1.000000 1.000000 1.000000
v -10 1 14 1.000000 1.000000 1.000000
v -10 0 13 1.000000 1.000000 1.000000
v -10 1 13 1.000000 1.000000 1.000000
v -14 0 12 1.000000 1.000000 1.000000
v -13 0 12 1.000000 1.000000 1.000000
v -13 1 12 1.000000 1.000000 1.000000
v -14 1 12 1.000000 1.000000 1.000000
v -12 0 12 1.000000 1.000000 1.000000
v -12 1 12 1.000000 1.000000 1.000000
v -11 0 12 1.000000 1.000000 1.000000
v -11 1 12 1.000000 1.000000 1.000000
v -10 0 12 1.000000 1.000000 1.000000
v -10 1 12 1.000000 1.000000 1.000000
v -14 0 11 1.000000 1.000000 1.000000
v -13 0 11 1.000000 1.000000 1.000000
v -13 1 11 1.000000 1.000000 1.000000
v -14 1 11 1.000000 1.000000 1.000000
v -12 0 11 1.000000 1.000000 1.000000
v -12 1 11 1.000000 1.000000 1.000000
v -11 0 11 1.000000 1.000000 1.000000
v -11 1 11 1.000000 1.000000 1.000000
v -10 0 11 1.000000 1.000000 1.000000
v -10 1 11 1.000000 1.000000 1.000000
v -13 0 10 1.000000 1.000000 1.000000
v -14 0 10 1.000000 1.000000 1.000000
v -14 1 10 1.000000 1.000000 1.000000
v -13 1 10 1.000000 1.000000 1.000000
v -12 0 10 1.000000 1.000000 1.000000
v -12 1 10 1.000000 1.000000 1.000000
v -11 0 10 1.000000 1.000000 1.000000
v -11 1 10 1.000000 1.000000 1.000000
v -10 0 10 1.000000 1.000000 1.000000
v -10 1 10 1.000000 1.000000 1.000000
v -15 1 15 1.000000 1.000000 1.000000
v -14 1 15 1.000000 1.000000 1.000000
v -14 2 15 1.000000 1.000000 1.000000
v -15 2 15 1.000000 1.000000 1.000000
v -15 1 14 1.000000 1.000000 1.000000
v -15 2 14 1.000000 1.000000 1.000000
v -13 1 15 1.000000 1.000000 1.000000
v -13 2 15 1.000000 1.000000 1.000000
v -14 2 14 1.000000 1.000000 1.000000
v -13 2 14 1.000000 1.000000 1.000000
v -12 1 15 1.000000 1.000000 1.000000
v -12 2 15 1.000000 1.000000 1.000000
v -12 2 14 1.000000 1.000000 1.000000
v -11 1 15 1.000000 1.000000 1.000000
v -11 2 15 1.000000 1.000000 1.000000
v -11 2 14 1.000000 1.000000 1.000000
v -10 1 15 1.000000 1.000000 1.000000
v -10 2 15 1.000000 1.000000 1.000000
v -10 2 14 1.000000 1.000000 1.000000
v -9 1 15 1.000000 1.000000 1.000000
v -9 2 15 1.000000 1.000000 1.000000
v -9 1 14 1.000000 1.000000 1.000000
v -9 2 14 1.000000 1.000000 1.000000
v -15 1 13 1.000000 1.000000 1.000000
v -14 2 13 1.000000 1.000000 1.000000
v -15 2 13 1.000000 1.000000 1.000000
v -9 1 13 1.000000 1.000000 1.000000
v -9 2 13 1.000000 1.000000 1.000000
v -10 2 13 1.000000 1.000000 1.000000
v -15 1 12 1.000000 1.000000 1.000000
v -14 2 12 1.000000 1.000000 1.000000
v -15 2 12 1.000000 1.000000 1.000000
v -9 1 12 1.000000 1.000000 1.000000
v -9 2 12 1.000000 1.000000 1.000000
v -10 2 12 1.000000 1.000000 1.000000
v -15 1 11 1.000000 1.000000 1.000000
v -14 2 11 1.000000 1.000000 1.000000
v -15 2 11 1.000000 1.000000 1.000000
v -9 1 11 1.000000 1.000000 1.000000
v -9 2 11 1.000000 1.000000 1.000000
v -10 2 11 1.000000 1.000000 1.000000
v -15 1 10 1.000000 1.000000 1.000000
v -14 2 10 1.000000 1.000000 1.000000
v -15 2 10 1.000000 1.000000 1.000000
v -9 1 10 1.000000 1.000000 1.000000
v -9 2 10 1.000000 1.000000 1.000000
v -10 2 10 1.000000 1.000000 1.000000
v -14 1 9 1.000000 1.000000 1.000000
v -15 1 9 1.000000 1.000000 1.000000
v -15 2 9 1.000000 1.000000 1.000000
v -14 2 9 1.000000 1.000000 1.000000
v -13 2 10 1.000000 1.000000 1.000000
v -13 1 9 1.000000 1.000000 1.000000
v -13 2 9 1.000000 1.000000 1.000000
v -12 2 10 1.000000 1.000000 1.000000
v -12 1 9 1.000000 1.000000 1.000000
v -12 2 9 1.000000 1.000000 1.000000
v -11 2 10 1.000000 1.000000 1.000000
v -11 1 9 1.000000 1.000000 1.000000
v -11 2 9 1.000000 1.000000 1.000000
v -10 1 9 1.000000 1.000000 1.000000
v -10 2 9 1.000000 1.000000 1.000000
v -9 1 9 1.000000 1.000000 1.000000
v -9 2 9 1.000000 1.000000 1.000000
v -14 3 15 1.000000 1.000000 1.000000
v -15 3 15 1.000000 1.000000 1.000000
v -15 3 14 1.000000 1.000000 1.000000
v -13 3 15 1.000000 1.000000 1.000000
v -14 3 14 1.000000 1.000000 1.000000
v -13 3 14 1.000000 1.000000 1.000000
v -12 3 15 1.000000 1.000000 1.000000
v -12 3 14 1.000000 1.000000 1.000000
v -11 3 15 1.000000 1.000000 1.000000
v -11 3 14 1.000000 1.000000 1.000000
v -10 3 15 1.000000 1.000000 1.000000
v -10 3 14 1.000000 1.000000 1.000000
v -9 3 15 1.000000 1.000000 1.000000
v -9 3 14 1.000000 1.000000 1.000000
v -14 3 13 1.000000 1.000000 1.000000
v -15 3 13 1.000000 1.000000 1.000000
v -9 3 13 1.000000 1.000000 1.000000
v -10 3 13 1.000000 1.000000 1.000000
v -14 3 12 1.000000 1.000000 1.000000
v -15 3 12 1.000000 1.000000 1.000000
v -9 3 12 1.000000 1.000000 1.000000
v -10 3 12 1.000000 1.000000 1.000000
v -14 3 11 1.000000 1.000000 1.000000
v -15 3 11 1.000000 1.000000 1.000000
v -9 3 11 1.000000 1.000000 1.000000
v -10 3 11 1.000000 1.000000 1.000000
v -14 3 10 1.000000 1.000000 1.000000
v -15 3 10 1.000000 1.000000 1.000000
v -9 3 10 1.000000 1.000000 1.000000
v -10 3 10 1.000000 1.000000 1.000000
v -15 3 9 1.000000 1.000000 1.000000
v -14 3 9 1.000000 1.000000 1.000000
v -13 3 10 1.000000 1.000000 1.000000
v -13 3 9 1.000000 1.000000 1.000000
v -12 3 10 1.000000 1.000000 1.000000
v -12 3 9 1.000000 1.000000 1.000000
v -11 3 10 1.000000 1.000000 1.000000
v -11 3 9 1.000000 1.000000 1.000000
v -10 3 9 1.000000 1.000000 1.000000
v -9 3 9 1.000000 1.000000 1.000000
v -14 4 15 1.000000 1.000000 1.000000
v -15 4 15 1.000000 1.000000 1.000000
v -15 4 14 1.000000 1.000000 1.000000
v -13 4 15 1.000000 1.000000 1.000000
v -14 4 14 1.000000 1.000000 1.000000
v -13 4 14 1.000000 1.000000 1.000000
v -12 4 15 1.000000 1.000000 1.000000
v -12 4 14 1.000000 1.000000 1.000000
v -11 4 15 1.000000 1.000000 1.000000
v -11 4 14 1.000000 1.000000 1.000000
v -10 4 15 1.000000 1.000000 1.000000
v -10 4 14 1.000000 1.000000 1.000000
v -9 4 15 1.000000 1.000000 1.000000
v -9 4 14 1.000000 1.000000 1.000000
v -14 4 13 1.000000 1.000000 1.000000
v -15 4 13 1.000000 1.000000 1.000000
v -9 4 13 1.000000 1.000000 1.000000
v -10 4 13 1.000000 1.000000 1.000000
v -16 3 13 1.000000 1.000000 1.000000
v -16 4 13 1.000000 1.000000 1.000000
v -16 3 12 1.000000 1.000000 1.000000
v -15 4 12 1.000000 1.000000 1.000000
v -16 4 12 1.000000 1.000000 1.000000
v -14 4 12 1.000000 1.000000 1.000000
v -10 4 12 1.000000 1.000000 1.000000
v -8 3 13 1.000000 1.000000 1.000000
v -8 4 13 1.000000 1.000000 1.000000
v -8 3 12 1.000000 1.000000 1.000000
v -8 4 12 1.000000 1.000000 1.000000
v -9 4 12 1.000000 1.000000 1.000000
v -16 3 11 1.000000 1.000000 1.000000
v -16 4 11 1.000000 1.000000 1.000000
v -15 4 11 1.000000 1.000000 1.000000
v -14 4 11 1.000000 1.000000 1.000000
v -10 4 11 1.000000 1.000000 1.000000
v -8 3 11 1.000000 1.000000 1.000000
v -9 4 11 1.000000 1.000000 1.000000
v -8 4 11 1.000000 1.000000 1.000000
v -14 4 10 1.000000 1.000000 1.000000
v -15 4 10 1.000000 1.000000 1.000000
v -9 4 10 1.000000 1.000000 1.000000
v -10 4 10 1.000000 1.000000 1.000000
v -15 4 9 1.000000 1.000000 1.000000
v -14 4 9 1.000000 1.000000 1.000000
v -13 4 10 1.000000 1.000000 1.000000
v -13 4 9 1.000000 1.000000 1.000000
v -12 4 10 1.000000 1.000000 1.000000
v -12 4 9 1.000000 1.000000 1.000000
v -11 4 10 1.000000 1.000000 1.000000
v -11 4 9 1.000000 1.000000 1.000000
v -10 4 9 1.000000 1.000000 1.000000
v -9 4 9 1.000000 1.000000 1.000000
v -14 5 15 1.000000 1.000000 1.000000
v -15 5 15 1.000000 1.000000 1.000000
v -14 5 14 1.000000 1.000000 1.000000
v -15 5 14 1.000000 1.000000 1.000000
v -13 5 15 1.000000 1.000000 1.000000
v -13 5 14 1.000000 1.000000 1.000000
v -12 5 15 1.000000 1.000000 1.000000
v -12 5 14 1.000000 1.000000 1.000000
v -11 5 15 1.000000 1.000000 1.000000
v -11 5 14 1.000000 1.000000 1.000000
v -10 5 15 1.000000 1.000000 1.000000
v -10 5 14 1.000000 1.000000 1.000000
v -9 5 15 1.000000 1.000000 1.000000
v -9 5 14 1.000000 1.000000 1.000000
v -14 5 13 1.000000 1.000000 1.000000
v -15 5 13 1.000000 1.000000 1.000000
v -9 5 13 1.000000 1.000000 1.000000
v -10 5 13 1.000000 1.000000 1.000000
v -14 5 12 1.000000 1.000000 1.000000
v -15 5 12 1.000000 1.000000 1.000000
v -9 5 12 1.000000 1.000000 1.000000
v -10 5 12 1.000000 1.000000 1.000000
v -14 5 11 1.000000 1.000000 1.000000
v -15 5 11 1.000000 1.000000 1.000000
v -9 5 11 1.000000 1.000000 1.000000
v -10 5 11 1.000000 1.000000 1.000000
v -14 5 10 1.000000 1.000000 1.000000
v -15 5 10 1.000000 1.000000 1.000000
v -9 5 10 1.000000 1.000000 1.000000
v -10 5 10 1.000000 1.000000 1.000000
v -15 5 9 1.000000 1.000000 1.000000
v -14 5 9 1.000000 1.000000 1.000000
v -13 5 10 1.000000 1.000000 1.000000
v -13 5 9 1.000000 1.000000 1.000000
v -12 5 10 1.000000 1.000000 1.000000
v -12 5 9 1.000000 1.000000 1.000000
v -11 5 10 1.000000 1.000000 1.000000
v -11 5 9 1.000000 1.000000 1.000000
v -10 5 9 1.000000 1.000000 1.000000
v -9 5 9 1.000000 1.000000 1.000000
vn 0 0 1
vn 0 -1 0
vn 0 1 0
vn -1 0 0
vn 1 0 0
vn 0 0 -1
f 1//1 2//1 3//1 4//1
f 1//2 5//2 6//2 2//2
f 3//3 7//3 8//3 4//3
f 1//4 4//4 8//4 5//4
f 2//1 9//1 10//1 3//1
f 2//2 6//2 11//2 9//2
f 10//3 12//3 7//3 3//3
f 9//1 13//1 14//1 10//1
f 9//2 11//2 15//2 13//2
f 14//3 16//3 12//3 10//3
f 13//1 17//1 18//1 14//1
f 13//2 15//2 19//2 17//2
f 18//3 20//3 16//3 14//3
f 17//5 19//5 20//5 18//5
f 5//2 21//2 22//2 6//2
f 7//3 23//3 24//3 8//3
f 5//4 8//4 24//4 21//4
f 6//2 22//2 25//2 11//2
f 12//3 26//3 23//3 7//3
f 11//2 25//2 27//2 15//2
f 16//3 28//3 26//3 12//3
f 15//2 27//2 29//2 19//2
f 20//3 30//3 28//3 16//3
f 19//5 29//5 30//5 20//5
f 21//2 31//2 32//2 22//2
f 23//3 33//3 34//3 24//3
f 21//4 24//4 34//4 31//4
f 22//2 32//2 35//2 25//2
f 26//3 36//3 33//3 23//3
f 25//2 35//2 37//2 27//2
f 28//3 38//3 36//3 26//3
f 27//2 37//2 39//2 29//2
f 30//3 40//3 38//3 28//3
f 29//5 39//5 40//5 30//5
f 41//6 42//6 43//6 44//6
f 31//2 42//2 41//2 32//2
f 33//3 44//3 43//3 34//3
f 31//4 34//4 43//4 42//4
f 45//6 41//6 44//6 46//6
f 32//2 41//2 45//2 35//2
f 36//3 46//3 44//3 33//3
f 47//6 45//6 46//6 48//6
f 35//2 45//2 47//2 37//2
f 38//3 48//3 46//3 36//3
f 49//6 47//6 48//6 50//6
f 37//2 47//2 49//2 39//2
f 40//3 50//3 48//3 38//3
f 39//5 49//5 50//5 40//5
f 51//1 52//1 53//1 54//1
f 51//2 55//2 4//2 52//2
f 51//4 54//4 56//4 55//4
f 52//1 57//1 58//1 53//1
f 3//6 4//6 59//6 60//6
f 52//2 4//2 3//2 57//2
f 57//1 61//1 62//1 58//1
f 10//6 3//6 60//6 63//6
f 57//2 3//2 10//2 61//2
f 61//1 64//1 65//1 62//1
f 14//6 10//6 63//6 66//6
f 61//2 10//2 14//2 64//2
f 64//1 67//1 68//1 65//1
f 18//6 14//6 66//6 69//6
f 64//2 14//2 18//2 67//2
f 67//1 70//1 71//1 68//1
f 67//2 18//2 72//2 70//2
f 70//5 72//5 73//5 71//5
f 55//2 74//2 8//2 4//2
f 4//5 8//5 75//5 59//5
f 55//4 56//4 76//4 74//4
f 18//2 20//2 77//2 72//2
f 72//5 77//5 78//5 73//5
f 18//4 69//4 79//4 20//4
f 74//2 80//2 24//2 8//2
f 8//5 24//5 81//5 75//5
f 74//4 76//4 82//4 80//4
f 20//2 30//2 83//2 77//2
f 77//5 83//5 84//5 78//5
f 20//4 79//4 85//4 30//4
f 80//2 86//2 34//2 24//2
f 24//5 34//5 87//5 81//5
f 80//4 82//4 88//4 86//4
f 30//2 40//2 89//2 83//2
f 83//5 89//5 90//5 84//5
f 30//4 85//4 91//4 40//4
f 86//2 92//2 43//2 34//2
f 34//5 43//5 93//5 87//5
f 86//4 88//4 94//4 92//4
f 40//2 50//2 95//2 89//2
f 89//5 95//5 96//5 90//5
f 40//4 91//4 97//4 50//4
f 98//6 99//6 100//6 101//6
f 92//2 99//2 98//2 43//2
f 92//4 94//4 100//4 99//4
f 43//1 44//1 102//1 93//1
f 103//6 98//6 101//6 104//6
f 43//2 98//2 103//2 44//2
f 44//1 46//1 105//1 102//1
f 106//6 103//6 104//6 107//6
f 44//2 103//2 106//2 46//2
f 46//1 48//1 108//1 105//1
f 109//6 106//6 107//6 110//6
f 46//2 106//2 109//2 48//2
f 48//1 50//1 97//1 108//1
f 111//6 109//6 110//6 112//6
f 48//2 109//2 111//2 50//2
f 113//6 111//6 112//6 114//6
f 50//2 111//2 113//2 95//2
f 95//5 113//5 114//5 96//5
f 54//1 53//1 115//1 116//1
f 54//4 116//4 117//4 56//4
f 53//1 58//1 118//1 115//1
f 60//6 59//6 119//6 120//6
f 58//1 62//1 121//1 118//1
f 63//6 60//6 120//6 122//6
f 62//1 65//1 123//1 121//1
f 66//6 63//6 122//6 124//6
f 65//1 68//1 125//1 123//1
f 69//6 66//6 124//6 126//6
f 68//1 71//1 127//1 125//1
f 71//5 73//5 128//5 127//5
f 59//5 75//5 129//5 119//5
f 56//4 117//4 130//4 76//4
f 73//5 78//5 131//5 128//5
f 69//4 126//4 132//4 79//4
f 75//5 81//5 133//5 129//5
f 76//4 130//4 134//4 82//4
f 78//5 84//5 135//5 131//5
f 79//4 132//4 136//4 85//4
f 81//5 87//5 137//5 133//5
f 82//4 134//4 138//4 88//4
f 84//5 90//5 139//5 135//5
f 85//4 136//4 140//4 91//4
f 87//5 93//5 141//5 137//5
f 88//4 138//4 142//4 94//4
f 90//5 96//5 143//5 139//5
f 91//4 140//4 144//4 97//4
f 101//6 100//6 145//6 146//6
f 94//4 142//4 145//4 100//4
f 93//1 102//1 147//1 141//1
f 104//6 101//6 146//6 148//6
f 102//1 105//1 149//1 147//1
f 107//6 104//6 148//6 150//6
f 105//1 108//1 151//1 149//1
f 110//6 107//6 150//6 152//6
f 108//1 97//1 144//1 151//1
f 112//6 110//6 152//6 153//6
f 114//6 112//6 153//6 154//6
f 96//5 114//5 154//5 143//5
f 116//1 115//1 155//1 156//1
f 116//4 156//4 157//4 117//4
f 115//1 118//1 158//1 155//1
f 120//6 119//6 159//6 160//6
f 118//1 121//1 161//1 158//1
f 122//6 120//6 160//6 162//6
f 121//1 123//1 163//1 161//1
f 124//6 122//6 162//6 164//6
f 123//1 125//1 165//1 163//1
f 126//6 124//6 164//6 166//6
f 125//1 127//1 167//1 165//1
f 127//5 128//5 168//5 167//5
f 119//5 129//5 169//5 159//5
f 117//4 157//4 170//4 130//4
f 128//5 131//5 171//5 168//5
f 126//4 166//4 172//4 132//4
f 173//1 130//1 170//1 174//1
f 173//2 175//2 134//2 130//2
f 170//3 176//3 177//3 174//3
f 173//4 174//4 177//4 175//4
f 129//5 133//5 178//5 169//5
f 132//4 172//4 179//4 136//4
f 131//1 180//1 181//1 171//1
f 131//2 135//2 182//2 180//2
f 181//3 183//3 184//3 171//3
f 180//5 182//5 183//5 181//5
f 138//6 185//6 186//6 187//6
f 175//2 185//2 138//2 134//2
f 176//3 187//3 186//3 177//3
f 175//4 177//4 186//4 185//4
f 133//5 137//5 188//5 178//5
f 136//4 179//4 189//4 140//4
f 190//6 139//6 191//6 192//6
f 135//2 139//2 190//2 182//2
f 183//3 192//3 191//3 184//3
f 182//5 190//5 192//5 183//5
f 137//5 141//5 193//5 188//5
f 138//4 187//4 194//4 142//4
f 139//5 143//5 195//5 191//5
f 140//4 189//4 196//4 144//4
f 146//6 145//6 197//6 198//6
f 142//4 194//4 197//4 145//4
f 141//1 147//1 199//1 193//1
f 148//6 146//6 198//6 200//6
f 147//1 149//1 201//1 199//1
f 150//6 148//6 200//6 202//6
f 149//1 151//1 203//1 201//1
f 152//6 150//6 202//6 204//6
f 151//1 144//1 196//1 203//1
f 153//6 152//6 204//6 205//6
f 154//6 153//6 205//6 206//6
f 143//5 154//5 206//5 195//5
f 156//1 155//1 207//1 208//1
f 207//3 209//3 210//3 208//3
f 156//4 208//4 210//4 157//4
f 155//1 158//1 211//1 207//1
f 160//6 159//6 209//6 212//6
f 211//3 212//3 209//3 207//3
f 158//1 161//1 213//1 211//1
f 162//6 160//6 212//6 214//6
f 213//3 214//3 212//3 211//3
f 161//1 163//1 215//1 213//1
f 164//6 162//6 214//6 216//6
f 215//3 216//3 214//3 213//3
f 163//1 165//1 217//1 215//1
f 166//6 164//6 216//6 218//6
f 217//3 218//3 216//3 215//3
f 165//1 167//1 219//1 217//1
f 219//3 220//3 218//3 217//3
f 167//5 168//5 220//5 219//5
f 209//3 221//3 222//3 210//3
f 159//5 169//5 221//5 209//5
f 157//4 210//4 222//4 170//4
f 220//3 223//3 224//3 218//3
f 168//5 171//5 223//5 220//5
f 166//4 218//4 224//4 172//4
f 221//3 225//3 226//3 222//3
f 169//5 178//5 225//5 221//5
f 170//4 222//4 226//4 176//4
f 223//3 227//3 228//3 224//3
f 171//5 184//5 227//5 223//5
f 172//4 224//4 228//4 179//4
f 225//3 229//3 230//3 226//3
f 178//5 188//5 229//5 225//5
f 176//4 226//4 230//4 187//4
f 227//3 231//3 232//3 228//3
f 184//5 191//5 231//5 227//5
f 179//4 228//4 232//4 189//4
f 229//3 233//3 234//3 230//3
f 188//5 193//5 233//5 229//5
f 187//4 230//4 234//4 194//4
f 231//3 235//3 236//3 232//3
f 191//5 195//5 235//5 231//5
f 189//4 232//4 236//4 196//4
f 198//6 197//6 237//6 238//6
f 233//3 238//3 237//3 234//3
f 194//4 234//4 237//4 197//4
f 193//1 199//1 239//1 233//1
f 200//6 198//6 238//6 240//6
f 239//3 240//3 238//3 233//3
f 199//1 201//1 241//1 239//1
f 202//6 200//6 240//6 242//6
f 241//3 242//3 240//3 239//3
f 201//1 203//1 243//1 241//1
f 204//6 202//6 242//6 244//6
f 243//3 244//3 242//3 241//3
f 203//1 196//1 236//1 243//1
f 205//6 204//6 244//6 245//6
f 236//3 245//3 244//3 243//3
f 206//6 205//6 245//6 246//6
f 235//3 246//3 245//3 236//3
f 195//5 206//5 246//5 235//5
