# Goxel 0.15.2
v -15 0 16 1.000000 1.000000 1.000000
v -14 0 16 1.000000 1.000000 1.000000
v -14 1 16 1.000000 1.000000 1.000000
v -15 1 16 1.000000 1.000000 1.000000
v -15 0 15 1.000000 1.000000 1.000000
v -14 0 15 1.000000 1.000000 1.000000
v -15 1 15 1.000000 1.000000 1.000000
v -13 0 16 1.000000 1.000000 1.000000
v -13 1 16 1.000000 1.000000 1.000000
v -13 0 15 1.000000 1.000000 1.000000
v -12 0 16 1.000000 1.000000 1.000000
v -12 1 16 1.000000 1.000000 1.000000
v -12 0 15 1.000000 1.000000 1.000000
v -11 0 16 1.000000 1.000000 1.000000
v -11 1 16 1.000000 1.000000 1.000000
v -11 0 15 1.000000 1.000000 1.000000
v -10 0 16 1.000000 1.000000 1.000000
v -10 1 16 1.000000 1.000000 1.000000
v -10 0 15 1.000000 1.000000 1.000000
v -9 0 16 1.000000 1.000000 1.000000
v -9 1 16 1.000000 1.000000 1.000000
v -9 0 15 1.000000 1.000000 1.000000
v -9 1 15 1.000000 1.000000 1.000000
v -16 0 15 1.000000 1.000000 1.000000
v -16 1 15 1.000000 1.000000 1.000000
v -16 0 14 1.000000 1.000000 1.000000
v -15 0 14 1.000000 1.000000 1.000000
v -16 1 14 1.000000 1.000000 1.000000
v -14 0 14 1.000000 1.000000 1.000000
v -14 1 15 1.000000 1.000000 1.000000
v -14 1 14 1.000000 1.000000 1.000000
v -15 1 14 1.000000 1.000000 1.000000
v -13 0 14 1.000000 1.000000 1.000000
v -13 1 14 1.000000 1.000000 1.000000
v -13 1 15 1.000000 1.000000 1.000000
v -12 0 14 1.000000 1.000000 1.000000
v -12 1 14 1.000000 1.000000 1.000000
v -12 1 15 1.000000 1.000000 1.000000
v -11 0 14 1.000000 1.000000 1.000000
v -11 1 14 1.000000 1.000000 1.000000
v -11 1 15 1.000000 1.000000 1.000000
v -10 0 14 1.000000 1.000000 1.000000
v -10 1 14 1.000000 1.000000 1.000000
v -10 1 15 1.000000 1.000000 1.000000
v -9 0 14 1.000000 1.000000 1.000000
v -9 1 14 1.000000 1.000000 1.000000
v -8 0 15 1.000000 1.000000 1.000000
v -8 1 15 1.000000 1.000000 1.000000
v -8 0 14 1.000000 1.000000 1.000000
v -8 1 14 1.000000 1.000000 1.000000
v -16 0 13 1.000000 1.000000 1.000000
v -15 0 13 1.000000 1.000000 1.000000
v -16 1 13 1.000000 1.000000 1.000000
v -14 0 13 1.000000 1.000000 1.000000
v -14 1 13 1.000000 1.000000 1.000000
v -15 1 13 1.000000 1.000000 1.000000
v -10 0 13 1.000000 1.000000 1.000000
v -9 0 13 1.000000 1.000000 1.000000
v -9 1 13 1.000000 1.000000 1.000000
v -10 1 13 1.000000 1.000000 1.000000
v -8 0 13 1.000000 1.000000 1.000000
v -8 1 13 1.000000 1.000000 1.000000
v -16 0 12 1.000000 1.000000 1.000000
v -15 0 12 1.000000 1.000000 1.000000
v -16 1 12 1.000000 1.000000 1.000000
v -14 0 12 1.000000 1.000000 1.000000
v -14 1 12 1.000000 1.000000 1.000000
v -15 1 12 1.000000 1.000000 1.000000
v -10 0 12 1.000000 1.000000 1.000000
v -9 0 12 1.000000 1.000000 1.000000
v -9 1 12 1.000000 1.000000 1.000000
v -10 1 12 1.000000 1.000000 1.000000
v -8 0 12 1.000000 1.000000 1.000000
v -8 1 12 1.000000 1.000000 1.000000
v -16 0 11 1.000000 1.000000 1.000000
v -15 0 11 1.000000 1.000000 1.000000
v -16 1 11 1.000000 1.000000 1.000000
v -14 0 11 1.000000 1.000000 1.000000
v -14 1 11 1.000000 1.000000 1.000000
v -15 1 11 1.000000 1.000000 1.000000
v -10 0 11 1.000000 1.000000 1.000000
v -9 0 11 1.000000 1.000000 1.000000
v -9 1 11 1.000000 1.000000 1.000000
v -10 1 11 1.000000 1.000000 1.000000
v -8 0 11 1.000000 1.000000 1.000000
v -8 1 11 1.000000 1.000000 1.000000
v -16 0 10 1.000000 1.000000 1.000000
v -15 0 10 1.000000 1.000000 1.000000
v -16 1 10 1.000000 1.000000 1.000000
v -14 0 10 1.000000 1.000000 1.000000
v -14 1 10 1.000000 1.000000 1.000000
v -15 1 10 1.000000 1.000000 1.000000
v -10 0 10 1.000000 1.000000 1.000000
v -9 0 10 1.000000 1.000000 1.000000
v -9 1 10 1.000000 1.000000 1.000000
v -10 1 10 1.000000 1.000000 1.000000
v -8 0 10 1.000000 1.000000 1.000000
v -8 1 10 1.000000 1.000000 1.000000
v -15 0 9 1.000000 1.000000 1.000000
v -16 0 9 1.000000 1.000000 1.000000
v -16 1 9 1.000000 1.000000 1.000000
v -15 1 9 1.000000 1.000000 1.000000
v -14 0 9 1.000000 1.000000 1.000000
v -14 1 9 1.000000 1.000000 1.000000
v -13 0 10 1.000000 1.000000 1.000000
v -13 1 10 1.000000 1.000000 1.000000
v -13 0 9 1.000000 1.000000 1.000000
v -13 1 9 1.000000 1.000000 1.000000
v -12 0 10 1.000000 1.000000 1.000000
v -12 1 10 1.000000 1.000000 1.000000
v -12 0 9 1.000000 1.000000 1.000000
v -12 1 9 1.000000 1.000000 1.000000
v -11 0 10 1.000000 1.000000 1.000000
v -11 1 10 1.000000 1.000000 1.000000
v -11 0 9 1.000000 1.000000 1.000000
v -11 1 9 1.000000 1.000000 1.000000
v -10 0 9 1.000000 1.000000 1.000000
v -10 1 9 1.000000 1.000000 1.000000
v -9 0 9 1.000000 1.000000 1.000000
v -9 1 9 1.000000 1.000000 1.000000
v -8 0 9 1.000000 1.000000 1.000000
v -8 1 9 1.000000 1.000000 1.000000
v -14 0 8 1.000000 1.000000 1.000000
v -15 0 8 1.000000 1.000000 1.000000
v -15 1 8 1.000000 1.000000 1.000000
v -14 1 8 1.000000 1.000000 1.000000
v -13 0 8 1.000000 1.000000 1.000000
v -13 1 8 1.000000 1.000000 1.000000
v -12 0 8 1.000000 1.000000 1.000000
v -12 1 8 1.000000 1.000000 1.000000
v -11 0 8 1.000000 1.000000 1.000000
v -11 1 8 1.000000 1.000000 1.000000
v -10 0 8 1.000000 1.000000 1.000000
v -10 1 8 1.000000 1.000000 1.000000
v -9 0 8 1.000000 1.000000 1.000000
v -9 1 8 1.000000 1.000000 1.000000
v -14 2 16 1.000000 1.000000 1.000000
v -15 2 16 1.000000 1.000000 1.000000
v -15 2 15 1.000000 1.000000 1.000000
v -14 2 15 1.000000 1.000000 1.000000
v -13 2 16 1.000000 1.000000 1.000000
v -13 2 15 1.000000 1.000000 1.000000
v -12 2 16 1.000000 1.000000 1.000000
v -12 2 15 1.000000 1.000000 1.000000
v -11 2 16 1.000000 1.000000 1.000000
v -11 2 15 1.000000 1.000000 1.000000
v -10 2 16 1.000000 1.000000 1.000000
v -10 2 15 1.000000 1.000000 1.000000
v -9 2 16 1.000000 1.000000 1.000000
v -9 2 15 1.000000 1.000000 1.000000
v -16 2 15 1.000000 1.000000 1.000000
v -15 2 14 1.000000 1.000000 1.000000
v -16 2 14 1.000000 1.000000 1.000000
v -8 2 15 1.000000 1.000000 1.000000
v -8 2 14 1.000000 1.000000 1.000000
v -9 2 14 1.000000 1.000000 1.000000
v -15 2 13 1.000000 1.000000 1.000000
v -16 2 13 1.000000 1.000000 1.000000
v -13 2 14 1.000000 1.000000 1.000000
v -14 2 14 1.000000 1.000000 1.000000
v -13 1 13 1.000000 1.000000 1.000000
v -13 2 13 1.000000 1.000000 1.000000
v -14 2 13 1.000000 1.000000 1.000000
v -12 2 14 1.000000 1.000000 1.000000
v -12 1 13 1.000000 1.000000 1.000000
v -12 2 13 1.000000 1.000000 1.000000
v -11 2 14 1.000000 1.000000 1.000000
v -11 1 13 1.000000 1.000000 1.000000
v -11 2 13 1.000000 1.000000 1.000000
v -10 2 14 1.000000 1.000000 1.000000
v -10 2 13 1.000000 1.000000 1.000000
v -8 2 13 1.000000 1.000000 1.000000
v -9 2 13 1.000000 1.000000 1.000000
v -15 2 12 1.000000 1.000000 1.000000
v -16 2 12 1.000000 1.000000 1.000000
v -13 1 12 1.000000 1.000000 1.000000
v -13 2 12 1.000000 1.000000 1.000000
v -14 2 12 1.000000 1.000000 1.000000
v -11 1 12 1.000000 1.000000 1.000000
v -10 2 12 1.000000 1.000000 1.000000
v -11 2 12 1.000000 1.000000 1.000000
v -8 2 12 1.000000 1.000000 1.000000
v -9 2 12 1.000000 1.000000 1.000000
v -15 2 11 1.000000 1.000000 1.000000
v -16 2 11 1.000000 1.000000 1.000000
v -13 1 11 1.000000 1.000000 1.000000
v -13 2 11 1.000000 1.000000 1.000000
v -14 2 11 1.000000 1.000000 1.000000
v -11 1 11 1.000000 1.000000 1.000000
v -10 2 11 1.000000 1.000000 1.000000
v -11 2 11 1.000000 1.000000 1.000000
v -8 2 11 1.000000 1.000000 1.000000
v -9 2 11 1.000000 1.000000 1.000000
v -15 2 10 1.000000 1.000000 1.000000
v -16 2 10 1.000000 1.000000 1.000000
v -14 2 10 1.000000 1.000000 1.000000
v -13 2 10 1.000000 1.000000 1.000000
v -12 1 11 1.000000 1.000000 1.000000
v -12 2 11 1.000000 1.000000 1.000000
v -12 2 10 1.000000 1.000000 1.000000
v -11 2 10 1.000000 1.000000 1.000000
v -10 2 10 1.000000 1.000000 1.000000
v -8 2 10 1.000000 1.000000 1.000000
v -9 2 10 1.000000 1.000000 1.000000
v -16 2 9 1.000000 1.000000 1.000000
v -15 2 9 1.000000 1.000000 1.000000
v -9 2 9 1.000000 1.000000 1.000000
v -8 2 9 1.000000 1.000000 1.000000
v -14 2 9 1.000000 1.000000 1.000000
v -15 2 8 1.000000 1.000000 1.000000
v -14 2 8 1.000000 1.000000 1.000000
v -13 2 9 1.000000 1.000000 1.000000
v -13 2 8 1.000000 1.000000 1.000000
v -12 2 9 1.000000 1.000000 1.000000
v -12 2 8 1.000000 1.000000 1.000000
v -11 2 9 1.000000 1.000000 1.000000
v -11 2 8 1.000000 1.000000 1.000000
v -10 2 9 1.000000 1.000000 1.000000
v -10 2 8 1.000000 1.000000 1.000000
v -9 2 8 1.000000 1.000000 1.000000
v -14 3 16 1.000000 1.000000 1.000000
v -15 3 16 1.000000 1.000000 1.000000
v -15 3 15 1.000000 1.000000 1.000000
v -14 3 15 1.000000 1.000000 1.000000
v -13 3 16 1.000000 1.000000 1.000000
v -13 3 15 1.000000 1.000000 1.000000
v -12 3 16 1.000000 1.000000 1.000000
v -12 3 15 1.000000 1.000000 1.000000
v -11 3 16 1.000000 1.000000 1.000000
v -11 3 15 1.000000 1.000000 1.000000
v -10 3 16 1.000000 1.000000 1.000000
v -10 3 15 1.000000 1.000000 1.000000
v -9 3 16 1.000000 1.000000 1.000000
v -9 3 15 1.000000 1.000000 1.000000
v -16 3 15 1.000000 1.000000 1.000000
v -15 3 14 1.000000 1.000000 1.000000
v -16 3 14 1.000000 1.000000 1.000000
v -8 3 15 1.000000 1.000000 1.000000
v -8 3 14 1.000000 1.000000 1.000000
v -9 3 14 1.000000 1.000000 1.000000
v -15 3 13 1.000000 1.000000 1.000000
v -16 3 13 1.000000 1.000000 1.000000
v -12 3 14 1.000000 1.000000 1.000000
v -13 3 14 1.000000 1.000000 1.000000
v -13 3 13 1.000000 1.000000 1.000000
v -12 3 13 1.000000 1.000000 1.000000
v -11 3 14 1.000000 1.000000 1.000000
v -11 3 13 1.000000 1.000000 1.000000
v -8 3 13 1.000000 1.000000 1.000000
v -9 3 13 1.000000 1.000000 1.000000
v -15 3 12 1.000000 1.000000 1.000000
v -16 3 12 1.000000 1.000000 1.000000
v -14 3 13 1.000000 1.000000 1.000000
v -13 3 12 1.000000 1.000000 1.000000
v -14 3 12 1.000000 1.000000 1.000000
v -10 3 13 1.000000 1.000000 1.000000
v -10 3 12 1.000000 1.000000 1.000000
v -11 3 12 1.000000 1.000000 1.000000
v -8 3 12 1.000000 1.000000 1.000000
v -9 3 12 1.000000 1.000000 1.000000
v -15 3 11 1.000000 1.000000 1.000000
v -16 3 11 1.000000 1.000000 1.000000
v -14 3 11 1.000000 1.000000 1.000000
v -13 3 11 1.000000 1.000000 1.000000
v -11 3 11 1.000000 1.000000 1.000000
v -10 3 11 1.000000 1.000000 1.000000
v -8 3 11 1.000000 1.000000 1.000000
v -9 3 11 1.000000 1.000000 1.000000
v -15 3 10 1.000000 1.000000 1.000000
v -16 3 10 1.000000 1.000000 1.000000
v -12 3 11 1.000000 1.000000 1.000000
v -13 3 10 1.000000 1.000000 1.000000
v -12 3 10 1.000000 1.000000 1.000000
v -11 3 10 1.000000 1.000000 1.000000
v -8 3 10 1.000000 1.000000 1.000000
v -9 3 10 1.000000 1.000000 1.000000
v -16 3 9 1.000000 1.000000 1.000000
v -15 3 9 1.000000 1.000000 1.000000
v -9 3 9 1.000000 1.000000 1.000000
v -8 3 9 1.000000 1.000000 1.000000
v -14 3 9 1.000000 1.000000 1.000000
v -15 3 8 1.000000 1.000000 1.000000
v -14 3 8 1.000000 1.000000 1.000000
v -13 3 9 1.000000 1.000000 1.000000
v -13 3 8 1.000000 1.000000 1.000000
v -12 3 9 1.000000 1.000000 1.000000
v -12 3 8 1.000000 1.000000 1.000000
v -11 3 9 1.000000 1.000000 1.000000
v -11 3 8 1.000000 1.000000 1.000000
v -10 3 9 1.000000 1.000000 1.000000
v -10 3 8 1.000000 1.000000 1.000000
v -9 3 8 1.000000 1.000000 1.000000
v -12 4 13 1.000000 1.000000 1.000000
v -13 4 13 1.000000 1.000000 1.000000
v -12 3 12 1.000000 1.000000 1.000000
v -13 4 12 1.000000 1.000000 1.000000
v -11 4 13 1.000000 1.000000 1.000000
v -11 4 12 1.000000 1.000000 1.000000
v -13 4 11 1.000000 1.000000 1.000000
v -12 4 11 1.000000 1.000000 1.000000
v -11 4 11 1.000000 1.000000 1.000000
v -12 5 13 1.000000 1.000000 1.000000
v -13 5 13 1.000000 1.000000 1.000000
v -12 5 12 1.000000 1.000000 1.000000
v -13 5 12 1.000000 1.000000 1.000000
v -11 5 13 1.000000 1.000000 1.000000
v -11 5 12 1.000000 1.000000 1.000000
v -13 5 11 1.000000 1.000000 1.000000
v -12 5 11 1.000000 1.000000 1.000000
v -11 5 11 1.000000 1.000000 1.000000
vn 0 0 1
vn 0 -1 0
vn -1 0 0
vn 1 0 0
vn 0 1 0
vn 0 0 -1
f 1//1 2//1 3//1 4//1
f 1//2 5//2 6//2 2//2
f 1//3 4//3 7//3 5//3
f 2//1 8//1 9//1 3//1
f 2//2 6//2 10//2 8//2
f 8//1 11//1 12//1 9//1
f 8//2 10//2 13//2 11//2
f 11//1 14//1 15//1 12//1
f 11//2 13//2 16//2 14//2
f 14//1 17//1 18//1 15//1
f 14//2 16//2 19//2 17//2
f 17//1 20//1 21//1 18//1
f 17//2 19//2 22//2 20//2
f 20//4 22//4 23//4 21//4
f 24//1 5//1 7//1 25//1
f 24//2 26//2 27//2 5//2
f 24//3 25//3 28//3 26//3
f 5//2 27//2 29//2 6//2
f 30//5 31//5 32//5 7//5
f 33//6 29//6 31//6 34//6
f 6//2 29//2 33//2 10//2
f 35//5 34//5 31//5 30//5
f 36//6 33//6 34//6 37//6
f 10//2 33//2 36//2 13//2
f 38//5 37//5 34//5 35//5
f 39//6 36//6 37//6 40//6
f 13//2 36//2 39//2 16//2
f 41//5 40//5 37//5 38//5
f 42//6 39//6 40//6 43//6
f 16//2 39//2 42//2 19//2
f 44//5 43//5 40//5 41//5
f 19//2 42//2 45//2 22//2
f 23//5 46//5 43//5 44//5
f 22//1 47//1 48//1 23//1
f 22//2 45//2 49//2 47//2
f 47//4 49//4 50//4 48//4
f 26//2 51//2 52//2 27//2
f 26//3 28//3 53//3 51//3
f 27//2 52//2 54//2 29//2
f 31//5 55//5 56//5 32//5
f 29//4 54//4 55//4 31//4
f 42//2 57//2 58//2 45//2
f 46//5 59//5 60//5 43//5
f 42//3 43//3 60//3 57//3
f 45//2 58//2 61//2 49//2
f 49//4 61//4 62//4 50//4
f 51//2 63//2 64//2 52//2
f 51//3 53//3 65//3 63//3
f 52//2 64//2 66//2 54//2
f 55//5 67//5 68//5 56//5
f 54//4 66//4 67//4 55//4
f 57//2 69//2 70//2 58//2
f 59//5 71//5 72//5 60//5
f 57//3 60//3 72//3 69//3
f 58//2 70//2 73//2 61//2
f 61//4 73//4 74//4 62//4
f 63//2 75//2 76//2 64//2
f 63//3 65//3 77//3 75//3
f 64//2 76//2 78//2 66//2
f 67//5 79//5 80//5 68//5
f 66//4 78//4 79//4 67//4
f 69//2 81//2 82//2 70//2
f 71//5 83//5 84//5 72//5
f 69//3 72//3 84//3 81//3
f 70//2 82//2 85//2 73//2
f 73//4 85//4 86//4 74//4
f 75//2 87//2 88//2 76//2
f 75//3 77//3 89//3 87//3
f 76//2 88//2 90//2 78//2
f 79//5 91//5 92//5 80//5
f 78//4 90//4 91//4 79//4
f 81//2 93//2 94//2 82//2
f 83//5 95//5 96//5 84//5
f 81//3 84//3 96//3 93//3
f 82//2 94//2 97//2 85//2
f 85//4 97//4 98//4 86//4
f 99//6 100//6 101//6 102//6
f 87//2 100//2 99//2 88//2
f 87//3 89//3 101//3 100//3
f 88//2 99//2 103//2 90//2
f 91//5 104//5 102//5 92//5
f 90//1 105//1 106//1 91//1
f 90//2 103//2 107//2 105//2
f 106//5 108//5 104//5 91//5
f 105//1 109//1 110//1 106//1
f 105//2 107//2 111//2 109//2
f 110//5 112//5 108//5 106//5
f 109//1 113//1 114//1 110//1
f 109//2 111//2 115//2 113//2
f 114//5 116//5 112//5 110//5
f 113//1 93//1 96//1 114//1
f 113//2 115//2 117//2 93//2
f 96//5 118//5 116//5 114//5
f 93//2 117//2 119//2 94//2
f 95//5 120//5 118//5 96//5
f 121//6 119//6 120//6 122//6
f 94//2 119//2 121//2 97//2
f 97//4 121//4 122//4 98//4
f 123//6 124//6 125//6 126//6
f 99//2 124//2 123//2 103//2
f 99//3 102//3 125//3 124//3
f 127//6 123//6 126//6 128//6
f 103//2 123//2 127//2 107//2
f 129//6 127//6 128//6 130//6
f 107//2 127//2 129//2 111//2
f 131//6 129//6 130//6 132//6
f 111//2 129//2 131//2 115//2
f 133//6 131//6 132//6 134//6
f 115//2 131//2 133//2 117//2
f 135//6 133//6 134//6 136//6
f 117//2 133//2 135//2 119//2
f 119//4 135//4 136//4 120//4
f 4//1 3//1 137//1 138//1
f 30//6 7//6 139//6 140//6
f 4//3 138//3 139//3 7//3
f 3//1 9//1 141//1 137//1
f 35//6 30//6 140//6 142//6
f 9//1 12//1 143//1 141//1
f 38//6 35//6 142//6 144//6
f 12//1 15//1 145//1 143//1
f 41//6 38//6 144//6 146//6
f 15//1 18//1 147//1 145//1
f 44//6 41//6 146//6 148//6
f 18//1 21//1 149//1 147//1
f 23//6 44//6 148//6 150//6
f 21//4 23//4 150//4 149//4
f 25//1 7//1 139//1 151//1
f 7//4 32//4 152//4 139//4
f 25//3 151//3 153//3 28//3
f 23//1 48//1 154//1 150//1
f 48//4 50//4 155//4 154//4
f 23//3 150//3 156//3 46//3
f 32//4 56//4 157//4 152//4
f 28//3 153//3 158//3 53//3
f 31//1 34//1 159//1 160//1
f 31//2 55//2 161//2 34//2
f 159//5 162//5 163//5 160//5
f 31//3 160//3 163//3 55//3
f 34//1 37//1 164//1 159//1
f 165//6 161//6 162//6 166//6
f 34//2 161//2 165//2 37//2
f 37//1 40//1 167//1 164//1
f 168//6 165//6 166//6 169//6
f 37//2 165//2 168//2 40//2
f 40//1 43//1 170//1 167//1
f 40//2 168//2 60//2 43//2
f 170//5 171//5 169//5 167//5
f 43//4 60//4 171//4 170//4
f 50//4 62//4 172//4 155//4
f 46//3 156//3 173//3 59//3
f 56//4 68//4 174//4 157//4
f 53//3 158//3 175//3 65//3
f 55//2 67//2 176//2 161//2
f 161//4 176//4 177//4 162//4
f 55//3 163//3 178//3 67//3
f 168//2 179//2 72//2 60//2
f 60//4 72//4 180//4 171//4
f 168//3 169//3 181//3 179//3
f 62//4 74//4 182//4 172//4
f 59//3 173//3 183//3 71//3
f 68//4 80//4 184//4 174//4
f 65//3 175//3 185//3 77//3
f 67//2 79//2 186//2 176//2
f 176//4 186//4 187//4 177//4
f 67//3 178//3 188//3 79//3
f 179//2 189//2 84//2 72//2
f 72//4 84//4 190//4 180//4
f 179//3 181//3 191//3 189//3
f 74//4 86//4 192//4 182//4
f 71//3 183//3 193//3 83//3
f 80//4 92//4 194//4 184//4
f 77//3 185//3 195//3 89//3
f 106//6 91//6 196//6 197//6
f 79//2 91//2 106//2 186//2
f 187//5 197//5 196//5 188//5
f 79//3 188//3 196//3 91//3
f 186//1 198//1 199//1 187//1
f 110//6 106//6 197//6 200//6
f 186//2 106//2 110//2 198//2
f 198//1 189//1 191//1 199//1
f 114//6 110//6 200//6 201//6
f 198//2 110//2 114//2 189//2
f 96//6 114//6 201//6 202//6
f 189//2 114//2 96//2 84//2
f 190//5 202//5 201//5 191//5
f 84//4 96//4 202//4 190//4
f 86//4 98//4 203//4 192//4
f 83//3 193//3 204//3 95//3
f 102//6 101//6 205//6 206//6
f 92//4 102//4 206//4 194//4
f 89//3 195//3 205//3 101//3
f 122//6 120//6 207//6 208//6
f 98//4 122//4 208//4 203//4
f 95//3 204//3 207//3 120//3
f 102//1 104//1 209//1 206//1
f 126//6 125//6 210//6 211//6
f 102//3 206//3 210//3 125//3
f 104//1 108//1 212//1 209//1
f 128//6 126//6 211//6 213//6
f 108//1 112//1 214//1 212//1
f 130//6 128//6 213//6 215//6
f 112//1 116//1 216//1 214//1
f 132//6 130//6 215//6 217//6
f 116//1 118//1 218//1 216//1
f 134//6 132//6 217//6 219//6
f 118//1 120//1 207//1 218//1
f 136//6 134//6 219//6 220//6
f 120//4 136//4 220//4 207//4
f 138//1 137//1 221//1 222//1
f 140//6 139//6 223//6 224//6
f 221//5 224//5 223//5 222//5
f 138//3 222//3 223//3 139//3
f 137//1 141//1 225//1 221//1
f 142//6 140//6 224//6 226//6
f 225//5 226//5 224//5 221//5
f 141//1 143//1 227//1 225//1
f 144//6 142//6 226//6 228//6
f 227//5 228//5 226//5 225//5
f 143//1 145//1 229//1 227//1
f 146//6 144//6 228//6 230//6
f 229//5 230//5 228//5 227//5
f 145//1 147//1 231//1 229//1
f 148//6 146//6 230//6 232//6
f 231//5 232//5 230//5 229//5
f 147//1 149//1 233//1 231//1
f 150//6 148//6 232//6 234//6
f 233//5 234//5 232//5 231//5
f 149//4 150//4 234//4 233//4
f 151//1 139//1 223//1 235//1
f 223//5 236//5 237//5 235//5
f 139//4 152//4 236//4 223//4
f 151//3 235//3 237//3 153//3
f 150//1 154//1 238//1 234//1
f 238//5 239//5 240//5 234//5
f 154//4 155//4 239//4 238//4
f 150//3 234//3 240//3 156//3
f 236//5 241//5 242//5 237//5
f 152//4 157//4 241//4 236//4
f 153//3 237//3 242//3 158//3
f 159//1 164//1 243//1 244//1
f 166//6 162//6 245//6 246//6
f 243//5 246//5 245//5 244//5
f 159//3 244//3 245//3 162//3
f 164//1 167//1 247//1 243//1
f 169//6 166//6 246//6 248//6
f 247//5 248//5 246//5 243//5
f 167//4 169//4 248//4 247//4
f 239//5 249//5 250//5 240//5
f 155//4 172//4 249//4 239//4
f 156//3 240//3 250//3 173//3
f 241//5 251//5 252//5 242//5
f 157//4 174//4 251//4 241//4
f 158//3 242//3 252//3 175//3
f 163//1 162//1 245//1 253//1
f 245//5 254//5 255//5 253//5
f 162//4 177//4 254//4 245//4
f 163//3 253//3 255//3 178//3
f 169//1 171//1 256//1 248//1
f 256//5 257//5 258//5 248//5
f 171//4 180//4 257//4 256//4
f 169//3 248//3 258//3 181//3
f 249//5 259//5 260//5 250//5
f 172//4 182//4 259//4 249//4
f 173//3 250//3 260//3 183//3
f 251//5 261//5 262//5 252//5
f 174//4 184//4 261//4 251//4
f 175//3 252//3 262//3 185//3
f 187//6 188//6 263//6 264//6
f 254//5 264//5 263//5 255//5
f 177//4 187//4 264//4 254//4
f 178//3 255//3 263//3 188//3
f 190//6 191//6 265//6 266//6
f 257//5 266//5 265//5 258//5
f 180//4 190//4 266//4 257//4
f 181//3 258//3 265//3 191//3
f 259//5 267//5 268//5 260//5
f 182//4 192//4 267//4 259//4
f 183//3 260//3 268//3 193//3
f 261//5 269//5 270//5 262//5
f 184//4 194//4 269//4 261//4
f 185//3 262//3 270//3 195//3
f 187//1 199//1 271//1 264//1
f 200//6 197//6 272//6 273//6
f 271//5 273//5 272//5 264//5
f 187//3 264//3 272//3 197//3
f 199//1 191//1 265//1 271//1
f 201//6 200//6 273//6 274//6
f 265//5 274//5 273//5 271//5
f 191//4 201//4 274//4 265//4
f 267//5 275//5 276//5 268//5
f 192//4 203//4 275//4 267//4
f 193//3 268//3 276//3 204//3
f 206//6 205//6 277//6 278//6
f 269//5 278//5 277//5 270//5
f 194//4 206//4 278//4 269//4
f 195//3 270//3 277//3 205//3
f 208//6 207//6 279//6 280//6
f 275//5 280//5 279//5 276//5
f 203//4 208//4 280//4 275//4
f 204//3 276//3 279//3 207//3
f 206//1 209//1 281//1 278//1
f 211//6 210//6 282//6 283//6
f 281//5 283//5 282//5 278//5
f 206//3 278//3 282//3 210//3
f 209//1 212//1 284//1 281//1
f 213//6 211//6 283//6 285//6
f 284//5 285//5 283//5 281//5
f 212//1 214//1 286//1 284//1
f 215//6 213//6 285//6 287//6
f 286//5 287//5 285//5 284//5
f 214//1 216//1 288//1 286//1
f 217//6 215//6 287//6 289//6
f 288//5 289//5 287//5 286//5
f 216//1 218//1 290//1 288//1
f 219//6 217//6 289//6 291//6
f 290//5 291//5 289//5 288//5
f 218//1 207//1 279//1 290//1
f 220//6 219//6 291//6 292//6
f 279//5 292//5 291//5 290//5
f 207//4 220//4 292//4 279//4
f 245//1 246//1 293//1 294//1
f 245//2 254//2 295//2 246//2
f 245//3 294//3 296//3 254//3
f 246//1 248//1 297//1 293//1
f 246//2 295//2 258//2 248//2
f 248//4 258//4 298//4 297//4
f 271//6 264//6 299//6 300//6
f 254//2 264//2 271//2 295//2
f 254//3 296//3 299//3 264//3
f 265//6 271//6 300//6 301//6
f 295//2 271//2 265//2 258//2
f 258//4 265//4 301//4 298//4
f 294//1 293//1 302//1 303//1
f 302//5 304//5 305//5 303//5
f 294//3 303//3 305//3 296//3
f 293//1 297//1 306//1 302//1
f 306//5 307//5 304//5 302//5
f 297//4 298//4 307//4 306//4
f 300//6 299//6 308//6 309//6
f 304//5 309//5 308//5 305//5
f 296//3 305//3 308//3 299//3
f 301//6 300//6 309//6 310//6
f 307//5 310//5 309//5 304//5
f 298//4 301//4 310//4 307//4
