# Goxel 0.15.2
v -14 0 14 1.000000 1.000000 1.000000
v -13 0 14 1.000000 1.000000 1.000000
v -13 1 14 1.000000 1.000000 1.000000
v -14 1 14 1.000000 1.000000 1.000000
v -14 0 13 1.000000 1.000000 1.000000
v -13 0 13 1.000000 1.000000 1.000000
v -13 1 13 1.000000 1.000000 1.000000
v -14 1 13 1.000000 1.000000 1.000000
v -12 0 14 1.000000 1.000000 1.000000
v -12 1 14 1.000000 1.000000 1.000000
v -12 0 13 1.000000 1.000000 1.000000
v -12 1 13 1.000000 1.000000 1.000000
v -11 0 14 1.000000 1.000000 1.000000
v -11 1 14 1.000000 1.000000 1.000000
v -11 0 13 1.000000 1.000000 1.000000
v -11 1 13 1.000000 1.000000 1.000000
v -10 0 14 1.000000 1.000000 1.000000
v -10 1 14 1.000000 1.000000 1.000000
v -10 0 13 1.000000 1.000000 1.000000
v -10 1 13 1.000000 1.000000 1.000000
v -14 0 12 1.000000 1.000000 1.000000
v -13 0 12 1.000000 1.000000 1.000000
v -13 1 12 1.000000 1.000000 1.000000
v -14 1 12 1.000000 1.000000 1.000000
v -12 0 12 1.000000 1.000000 1.000000
v -12 1 12 1.000000 1.000000 1.000000
v -11 0 12 1.000000 1.000000 1.000000
v -11 1 12 1.000000 1.000000 1.000000
v -10 0 12 1.000000 1.000000 1.000000
v -10 1 12 1.000000 1.000000 1.000000
v -14 0 11 1.000000 1.000000 1.000000
v -13 0 11 1.000000 1.000000 1.000000
v -13 1 11 1.000000 1.000000 1.000000
v -14 1 11 1.000000 1.000000 1.000000
v -12 0 11 1.000000 1.000000 1.000000
v -12 1 11 1.000000 1.000000 1.000000
v -11 0 11 1.000000 1.000000 1.000000
v -11 1 11 1.000000 1.000000 1.000000
v -10 0 11 1.000000 1.000000 1.000000
v -10 1 11 1.000000 1.000000 1.000000
v -13 0 10 1.000000 1.000000 1.000000
v -14 0 10 1.000000 1.000000 1.000000
v -14 1 10 1.000000 1.000000 1.000000
v -13 1 10 1.000000 1.000000 1.000000
v -12 0 10 1.000000 1.000000 1.000000
v -12 1 10 1.000000 1.000000 1.000000
v -11 0 10 1.000000 1.000000 1.000000
v -11 1 10 1.000000 1.000000 1.000000
v -10 0 10 1.000000 1.000000 1.000000
v -10 1 10 1.000000 1.000000 1.000000
v -15 1 15 1.000000 1.000000 1.000000
v -14 1 15 1.000000 1.000000 1.000000
v -14 2 15 1.000000 1.000000 1.000000
v -15 2 15 1.000000 1.000000 1.000000
v -15 1 14 1.000000 1.000000 1.000000
v -14 2 14 1.000000 1.000000 1.000000
v -15 2 14 1.000000 1.000000 1.000000
v -13 1 15 1.000000 1.000000 1.000000
v -13 2 15 1.000000 1.000000 1.000000
v -13 2 14 1.000000 1.000000 1.000000
v -12 1 15 1.000000 1.000000 1.000000
v -12 2 15 1.000000 1.000000 1.000000
v -12 2 14 1.000000 1.000000 1.000000
v -11 1 15 1.000000 1.000000 1.000000
v -11 2 15 1.000000 1.000000 1.000000
v -11 2 14 1.000000 1.000000 1.000000
v -10 1 15 1.000000 1.000000 1.000000
v -10 2 15 1.000000 1.000000 1.000000
v -10 2 14 1.000000 1.000000 1.000000
v -9 1 15 1.000000 1.000000 1.000000
v -9 2 15 1.000000 1.000000 1.000000
v -9 1 14 1.000000 1.000000 1.000000
v -9 2 14 1.000000 1.000000 1.000000
v -15 1 13 1.000000 1.000000 1.000000
v -14 2 13 1.000000 1.000000 1.000000
v -15 2 13 1.000000 1.000000 1.000000
v -9 1 13 1.000000 1.000000 1.000000
v -9 2 13 1.000000 1.000000 1.000000
v -10 2 13 1.000000 1.000000 1.000000
v -15 1 12 1.000000 1.000000 1.000000
v -14 2 12 1.000000 1.000000 1.000000
v -15 2 12 1.000000 1.000000 1.000000
v -9 1 12 1.000000 1.000000 1.000000
v -9 2 12 1.000000 1.000000 1.000000
v -10 2 12 1.000000 1.000000 1.000000
v -15 1 11 1.000000 1.000000 1.000000
v -14 2 11 1.000000 1.000000 1.000000
v -15 2 11 1.000000 1.000000 1.000000
v -9 1 11 1.000000 1.000000 1.000000
v -9 2 11 1.000000 1.000000 1.000000
v -10 2 11 1.000000 1.000000 1.000000
v -15 1 10 1.000000 1.000000 1.000000
v -14 2 10 1.000000 1.000000 1.000000
v -15 2 10 1.000000 1.000000 1.000000
v -9 1 10 1.000000 1.000000 1.000000
v -9 2 10 1.000000 1.000000 1.000000
v -10 2 10 1.000000 1.000000 1.000000
v -14 1 9 1.000000 1.000000 1.000000
v -15 1 9 1.000000 1.000000 1.000000
v -15 2 9 1.000000 1.000000 1.000000
v -14 2 9 1.000000 1.000000 1.000000
v -13 2 10 1.000000 1.000000 1.000000
v -13 1 9 1.000000 1.000000 1.000000
v -13 2 9 1.000000 1.000000 1.000000
v -12 2 10 1.000000 1.000000 1.000000
v -12 1 9 1.000000 1.000000 1.000000
v -12 2 9 1.000000 1.000000 1.000000
v -11 2 10 1.000000 1.000000 1.000000
v -11 1 9 1.000000 1.000000 1.000000
v -11 2 9 1.000000 1.000000 1.000000
v -10 1 9 1.000000 1.000000 1.000000
v -10 2 9 1.000000 1.000000 1.000000
v -9 1 9 1.000000 1.000000 1.000000
v -9 2 9 1.000000 1.000000 1.000000
v -16 2 16 1.000000 1.000000 1.000000
v -15 2 16 1.000000 1.000000 1.000000
v -15 3 16 1.000000 1.000000 1.000000
v -16 3 16 1.000000 1.000000 1.000000
v -16 2 15 1.000000 1.000000 1.000000
v -16 3 15 1.000000 1.000000 1.000000
v -14 2 16 1.000000 1.000000 1.000000
v -14 3 16 1.000000 1.000000 1.000000
v -15 3 15 1.000000 1.000000 1.000000
v -14 3 15 1.000000 1.000000 1.000000
v -13 2 16 1.000000 1.000000 1.000000
v -13 3 16 1.000000 1.000000 1.000000
v -13 3 15 1.000000 1.000000 1.000000
v -12 2 16 1.000000 1.000000 1.000000
v -12 3 16 1.000000 1.000000 1.000000
v -12 3 15 1.000000 1.000000 1.000000
v -11 2 16 1.000000 1.000000 1.000000
v -11 3 16 1.000000 1.000000 1.000000
v -11 3 15 1.000000 1.000000 1.000000
v -10 2 16 1.000000 1.000000 1.000000
v -10 3 16 1.000000 1.000000 1.000000
v -10 3 15 1.000000 1.000000 1.000000
v -9 2 16 1.000000 1.000000 1.000000
v -9 3 16 1.000000 1.000000 1.000000
v -9 3 15 1.000000 1.000000 1.000000
v -8 2 16 1.000000 1.000000 1.000000
v -8 3 16 1.000000 1.000000 1.000000
v -8 2 15 1.000000 1.000000 1.000000
v -8 3 15 1.000000 1.000000 1.000000
v -16 2 14 1.000000 1.000000 1.000000
v -15 3 14 1.000000 1.000000 1.000000
v -16 3 14 1.000000 1.000000 1.000000
v -8 2 14 1.000000 1.000000 1.000000
v -8 3 14 1.000000 1.000000 1.000000
v -9 3 14 1.000000 1.000000 1.000000
v -16 2 13 1.000000 1.000000 1.000000
v -15 3 13 1.000000 1.000000 1.000000
v -16 3 13 1.000000 1.000000 1.000000
v -8 2 13 1.000000 1.000000 1.000000
v -8 3 13 1.000000 1.000000 1.000000
v -9 3 13 1.000000 1.000000 1.000000
v -16 2 12 1.000000 1.000000 1.000000
v -15 3 12 1.000000 1.000000 1.000000
v -16 3 12 1.000000 1.000000 1.000000
v -8 2 12 1.000000 1.000000 1.000000
v -8 3 12 1.000000 1.000000 1.000000
v -9 3 12 1.000000 1.000000 1.000000
v -16 2 11 1.000000 1.000000 1.000000
v -15 3 11 1.000000 1.000000 1.000000
v -16 3 11 1.000000 1.000000 1.000000
v -8 2 11 1.000000 1.000000 1.000000
v -8 3 11 1.000000 1.000000 1.000000
v -9 3 11 1.000000 1.000000 1.000000
v -16 2 10 1.000000 1.000000 1.000000
v -15 3 10 1.000000 1.000000 1.000000
v -16 3 10 1.000000 1.000000 1.000000
v -8 2 10 1.000000 1.000000 1.000000
v -8 3 10 1.000000 1.000000 1.000000
v -9 3 10 1.000000 1.000000 1.000000
v -16 2 9 1.000000 1.000000 1.000000
v -15 3 9 1.000000 1.000000 1.000000
v -16 3 9 1.000000 1.000000 1.000000
v -8 2 9 1.000000 1.000000 1.000000
v -8 3 9 1.000000 1.000000 1.000000
v -9 3 9 1.000000 1.000000 1.000000
v -15 2 8 1.000000 1.000000 1.000000
v -16 2 8 1.000000 1.000000 1.000000
v -16 3 8 1.000000 1.000000 1.000000
v -15 3 8 1.000000 1.000000 1.000000
v -14 3 9 1.000000 1.000000 1.000000
v -14 2 8 1.000000 1.000000 1.000000
v -14 3 8 1.000000 1.000000 1.000000
v -13 3 9 1.000000 1.000000 1.000000
v -13 2 8 1.000000 1.000000 1.000000
v -13 3 8 1.000000 1.000000 1.000000
v -12 3 9 1.000000 1.000000 1.000000
v -12 2 8 1.000000 1.000000 1.000000
v -12 3 8 1.000000 1.000000 1.000000
v -11 3 9 1.000000 1.000000 1.000000
v -11 2 8 1.000000 1.000000 1.000000
v -11 3 8 1.000000 1.000000 1.000000
v -10 3 9 1.000000 1.000000 1.000000
v -10 2 8 1.000000 1.000000 1.000000
v -10 3 8 1.000000 1.000000 1.000000
v -9 2 8 1.000000 1.000000 1.000000
v -9 3 8 1.000000 1.000000 1.000000
v -8 2 8 1.000000 1.000000 1.000000
v -8 3 8 1.000000 1.000000 1.000000
v -15 4 16 1.000000 1.000000 1.000000
v -16 4 16 1.000000 1.000000 1.000000
v -16 4 15 1.000000 1.000000 1.000000
v -14 4 16 1.000000 1.000000 1.000000
v -15 4 15 1.000000 1.000000 1.000000
v -14 4 15 1.000000 1.000000 1.000000
v -13 4 16 1.000000 1.000000 1.000000
v -13 4 15 1.000000 1.000000 1.000000
v -12 4 16 1.000000 1.000000 1.000000
v -12 4 15 1.000000 1.000000 1.000000
v -11 4 16 1.000000 1.000000 1.000000
v -11 4 15 1.000000 1.000000 1.000000
v -10 4 16 1.000000 1.000000 1.000000
v -10 4 15 1.000000 1.000000 1.000000
v -9 4 16 1.000000 1.000000 1.000000
v -9 4 15 1.000000 1.000000 1.000000
v -8 4 16 1.000000 1.000000 1.000000
v -8 4 15 1.000000 1.000000 1.000000
v -15 4 14 1.000000 1.000000 1.000000
v -16 4 14 1.000000 1.000000 1.000000
v -8 4 14 1.000000 1.000000 1.000000
v -9 4 14 1.000000 1.000000 1.000000
v -15 4 13 1.000000 1.000000 1.000000
v -16 4 13 1.000000 1.000000 1.000000
v -8 4 13 1.000000 1.000000 1.000000
v -9 4 13 1.000000 1.000000 1.000000
v -15 4 12 1.000000 1.000000 1.000000
v -16 4 12 1.000000 1.000000 1.000000
v -8 4 12 1.000000 1.000000 1.000000
v -9 4 12 1.000000 1.000000 1.000000
v -15 4 11 1.000000 1.000000 1.000000
v -16 4 11 1.000000 1.000000 1.000000
v -8 4 11 1.000000 1.000000 1.000000
v -9 4 11 1.000000 1.000000 1.000000
v -15 4 10 1.000000 1.000000 1.000000
v -16 4 10 1.000000 1.000000 1.000000
v -8 4 10 1.000000 1.000000 1.000000
v -9 4 10 1.000000 1.000000 1.000000
v -15 4 9 1.000000 1.000000 1.000000
v -16 4 9 1.000000 1.000000 1.000000
v -8 4 9 1.000000 1.000000 1.000000
v -9 4 9 1.000000 1.000000 1.000000
v -16 4 8 1.000000 1.000000 1.000000
v -15 4 8 1.000000 1.000000 1.000000
v -14 4 9 1.000000 1.000000 1.000000
v -14 4 8 1.000000 1.000000 1.000000
v -13 4 9 1.000000 1.000000 1.000000
v -13 4 8 1.000000 1.000000 1.000000
v -12 4 9 1.000000 1.000000 1.000000
v -12 4 8 1.000000 1.000000 1.000000
v -11 4 9 1.000000 1.000000 1.000000
v -11 4 8 1.000000 1.000000 1.000000
v -10 4 9 1.000000 1.000000 1.000000
v -10 4 8 1.000000 1.000000 1.000000
v -9 4 8 1.000000 1.000000 1.000000
v -8 4 8 1.000000 1.000000 1.000000
v -15 5 16 1.000000 1.000000 1.000000
v -16 5 16 1.000000 1.000000 1.000000
v -16 5 15 1.000000 1.000000 1.000000
v -14 5 16 1.000000 1.000000 1.000000
v -15 5 15 1.000000 1.000000 1.000000
v -14 5 15 1.000000 1.000000 1.000000
v -13 5 16 1.000000 1.000000 1.000000
v -13 5 15 1.000000 1.000000 1.000000
v -12 5 16 1.000000 1.000000 1.000000
v -12 5 15 1.000000 1.000000 1.000000
v -11 5 16 1.000000 1.000000 1.000000
v -11 5 15 1.000000 1.000000 1.000000
v -10 5 16 1.000000 1.000000 1.000000
v -10 5 15 1.000000 1.000000 1.000000
v -9 5 16 1.000000 1.000000 1.000000
v -9 5 15 1.000000 1.000000 1.000000
v -8 5 16 1.000000 1.000000 1.000000
v -8 5 15 1.000000 1.000000 1.000000
v -15 5 14 1.000000 1.000000 1.000000
v -16 5 14 1.000000 1.000000 1.000000
v -8 5 14 1.000000 1.000000 1.000000
v -9 5 14 1.000000 1.000000 1.000000
v -15 5 13 1.000000 1.000000 1.000000
v -16 5 13 1.000000 1.000000 1.000000
v -8 5 13 1.000000 1.000000 1.000000
v -9 5 13 1.000000 1.000000 1.000000
v -15 5 12 1.000000 1.000000 1.000000
v -16 5 12 1.000000 1.000000 1.000000
v -8 5 12 1.000000 1.000000 1.000000
v -9 5 12 1.000000 1.000000 1.000000
v -15 5 11 1.000000 1.000000 1.000000
v -16 5 11 1.000000 1.000000 1.000000
v -8 5 11 1.000000 1.000000 1.000000
v -9 5 11 1.000000 1.000000 1.000000
v -15 5 10 1.000000 1.000000 1.000000
v -16 5 10 1.000000 1.000000 1.000000
v -8 5 10 1.000000 1.000000 1.000000
v -9 5 10 1.000000 1.000000 1.000000
v -15 5 9 1.000000 1.000000 1.000000
v -16 5 9 1.000000 1.000000 1.000000
v -8 5 9 1.000000 1.000000 1.000000
v -9 5 9 1.000000 1.000000 1.000000
v -16 5 8 1.000000 1.000000 1.000000
v -15 5 8 1.000000 1.000000 1.000000
v -14 5 9 1.000000 1.000000 1.000000
v -14 5 8 1.000000 1.000000 1.000000
v -13 5 9 1.000000 1.000000 1.000000
v -13 5 8 1.000000 1.000000 1.000000
v -12 5 9 1.000000 1.000000 1.000000
v -12 5 8 1.000000 1.000000 1.000000
v -11 5 9 1.000000 1.000000 1.000000
v -11 5 8 1.000000 1.000000 1.000000
v -10 5 9 1.000000 1.000000 1.000000
v -10 5 8 1.000000 1.000000 1.000000
v -9 5 8 1.000000 1.000000 1.000000
v -8 5 8 1.000000 1.000000 1.000000
v -15 6 16 1.000000 1.000000 1.000000
v -16 6 16 1.000000 1.000000 1.000000
v -15 6 15 1.000000 1.000000 1.000000
v -16 6 15 1.000000 1.000000 1.000000
v -14 6 16 1.000000 1.000000 1.000000
v -14 6 15 1.000000 1.000000 1.000000
v -13 6 16 1.000000 1.000000 1.000000
v -13 6 15 1.000000 1.000000 1.000000
v -12 6 16 1.000000 1.000000 1.000000
v -12 6 15 1.000000 1.000000 1.000000
v -11 6 16 1.000000 1.000000 1.000000
v -11 6 15 1.000000 1.000000 1.000000
v -10 6 16 1.000000 1.000000 1.000000
v -10 6 15 1.000000 1.000000 1.000000
v -9 6 16 1.000000 1.000000 1.000000
v -9 6 15 1.000000 1.000000 1.000000
v -8 6 16 1.000000 1.000000 1.000000
v -8 6 15 1.000000 1.000000 1.000000
v -15 6 14 1.000000 1.000000 1.000000
v -16 6 14 1.000000 1.000000 1.000000
v -8 6 14 1.000000 1.000000 1.000000
v -9 6 14 1.000000 1.000000 1.000000
v -15 6 13 1.000000 1.000000 1.000000
v -16 6 13 1.000000 1.000000 1.000000
v -8 6 13 1.000000 1.000000 1.000000
v -9 6 13 1.000000 1.000000 1.000000
v -15 6 12 1.000000 1.000000 1.000000
v -16 6 12 1.000000 1.000000 1.000000
v -8 6 12 1.000000 1.000000 1.000000
v -9 6 12 1.000000 1.000000 1.000000
v -15 6 11 1.000000 1.000000 1.000000
v -16 6 11 1.000000 1.000000 1.000000
v -8 6 11 1.000000 1.000000 1.000000
v -9 6 11 1.000000 1.000000 1.000000
v -15 6 10 1.000000 1.000000 1.000000
v -16 6 10 1.000000 1.000000 1.000000
v -8 6 10 1.000000 1.000000 1.000000
v -9 6 10 1.000000 1.000000 1.000000
v -15 6 9 1.000000 1.000000 1.000000
v -16 6 9 1.000000 1.000000 1.000000
v -8 6 9 1.000000 1.000000 1.000000
v -9 6 9 1.000000 1.000000 1.000000
v -16 6 8 1.000000 1.000000 1.000000
v -15 6 8 1.000000 1.000000 1.000000
v -14 6 9 1.000000 1.000000 1.000000
v -14 6 8 1.000000 1.000000 1.000000
v -13 6 9 1.000000 1.000000 1.000000
v -13 6 8 1.000000 1.000000 1.000000
v -12 6 9 1.000000 1.000000 1.000000
v -12 6 8 1.000000 1.000000 1.000000
v -11 6 9 1.000000 1.000000 1.000000
v -11 6 8 1.000000 1.000000 1.000000
v -10 6 9 1.000000 1.000000 1.000000
v -10 6 8 1.000000 1.000000 1.000000
v -9 6 8 1.000000 1.000000 1.000000
v -8 6 8 1.000000 1.000000 1.000000
vn 0 0 1
vn 0 -1 0
vn 0 1 0
vn -1 0 0
vn 1 0 0
vn 0 0 -1
f 1//1 2//1 3//1 4//1
f 1//2 5//2 6//2 2//2
f 3//3 7//3 8//3 4//3
f 1//4 4//4 8//4 5//4
f 2//1 9//1 10//1 3//1
f 2//2 6//2 11//2 9//2
f 10//3 12//3 7//3 3//3
f 9//1 13//1 14//1 10//1
f 9//2 11//2 15//2 13//2
f 14//3 16//3 12//3 10//3
f 13//1 17//1 18//1 14//1
f 13//2 15//2 19//2 17//2
f 18//3 20//3 16//3 14//3
f 17//5 19//5 20//5 18//5
f 5//2 21//2 22//2 6//2
f 7//3 23//3 24//3 8//3
f 5//4 8//4 24//4 21//4
f 6//2 22//2 25//2 11//2
f 12//3 26//3 23//3 7//3
f 11//2 25//2 27//2 15//2
f 16//3 28//3 26//3 12//3
f 15//2 27//2 29//2 19//2
f 20//3 30//3 28//3 16//3
f 19//5 29//5 30//5 20//5
f 21//2 31//2 32//2 22//2
f 23//3 33//3 34//3 24//3
f 21//4 24//4 34//4 31//4
f 22//2 32//2 35//2 25//2
f 26//3 36//3 33//3 23//3
f 25//2 35//2 37//2 27//2
f 28//3 38//3 36//3 26//3
f 27//2 37//2 39//2 29//2
f 30//3 40//3 38//3 28//3
f 29//5 39//5 40//5 30//5
f 41//6 42//6 43//6 44//6
f 31//2 42//2 41//2 32//2
f 33//3 44//3 43//3 34//3
f 31//4 34//4 43//4 42//4
f 45//6 41//6 44//6 46//6
f 32//2 41//2 45//2 35//2
f 36//3 46//3 44//3 33//3
f 47//6 45//6 46//6 48//6
f 35//2 45//2 47//2 37//2
f 38//3 48//3 46//3 36//3
f 49//6 47//6 48//6 50//6
f 37//2 47//2 49//2 39//2
f 40//3 50//3 48//3 38//3
f 39//5 49//5 50//5 40//5
f 51//1 52//1 53//1 54//1
f 51//2 55//2 4//2 52//2
f 53//3 56//3 57//3 54//3
f 51//4 54//4 57//4 55//4
f 52//1 58//1 59//1 53//1
f 3//6 4//6 56//6 60//6
f 52//2 4//2 3//2 58//2
f 59//3 60//3 56//3 53//3
f 58//1 61//1 62//1 59//1
f 10//6 3//6 60//6 63//6
f 58//2 3//2 10//2 61//2
f 62//3 63//3 60//3 59//3
f 61//1 64//1 65//1 62//1
f 14//6 10//6 63//6 66//6
f 61//2 10//2 14//2 64//2
f 65//3 66//3 63//3 62//3
f 64//1 67//1 68//1 65//1
f 18//6 14//6 66//6 69//6
f 64//2 14//2 18//2 67//2
f 68//3 69//3 66//3 65//3
f 67//1 70//1 71//1 68//1
f 67//2 18//2 72//2 70//2
f 71//3 73//3 69//3 68//3
f 70//5 72//5 73//5 71//5
f 55//2 74//2 8//2 4//2
f 56//3 75//3 76//3 57//3
f 4//5 8//5 75//5 56//5
f 55//4 57//4 76//4 74//4
f 18//2 20//2 77//2 72//2
f 73//3 78//3 79//3 69//3
f 72//5 77//5 78//5 73//5
f 18//4 69//4 79//4 20//4
f 74//2 80//2 24//2 8//2
f 75//3 81//3 82//3 76//3
f 8//5 24//5 81//5 75//5
f 74//4 76//4 82//4 80//4
f 20//2 30//2 83//2 77//2
f 78//3 84//3 85//3 79//3
f 77//5 83//5 84//5 78//5
f 20//4 79//4 85//4 30//4
f 80//2 86//2 34//2 24//2
f 81//3 87//3 88//3 82//3
f 24//5 34//5 87//5 81//5
f 80//4 82//4 88//4 86//4
f 30//2 40//2 89//2 83//2
f 84//3 90//3 91//3 85//3
f 83//5 89//5 90//5 84//5
f 30//4 85//4 91//4 40//4
f 86//2 92//2 43//2 34//2
f 87//3 93//3 94//3 88//3
f 34//5 43//5 93//5 87//5
f 86//4 88//4 94//4 92//4
f 40//2 50//2 95//2 89//2
f 90//3 96//3 97//3 91//3
f 89//5 95//5 96//5 90//5
f 40//4 91//4 97//4 50//4
f 98//6 99//6 100//6 101//6
f 92//2 99//2 98//2 43//2
f 93//3 101//3 100//3 94//3
f 92//4 94//4 100//4 99//4
f 43//1 44//1 102//1 93//1
f 103//6 98//6 101//6 104//6
f 43//2 98//2 103//2 44//2
f 102//3 104//3 101//3 93//3
f 44//1 46//1 105//1 102//1
f 106//6 103//6 104//6 107//6
f 44//2 103//2 106//2 46//2
f 105//3 107//3 104//3 102//3
f 46//1 48//1 108//1 105//1
f 109//6 106//6 107//6 110//6
f 46//2 106//2 109//2 48//2
f 108//3 110//3 107//3 105//3
f 48//1 50//1 97//1 108//1
f 111//6 109//6 110//6 112//6
f 48//2 109//2 111//2 50//2
f 97//3 112//3 110//3 108//3
f 113//6 111//6 112//6 114//6
f 50//2 111//2 113//2 95//2
f 96//3 114//3 112//3 97//3
f 95//5 113//5 114//5 96//5
f 115//1 116//1 117//1 118//1
f 115//2 119//2 54//2 116//2
f 115//4 118//4 120//4 119//4
f 116//1 121//1 122//1 117//1
f 53//6 54//6 123//6 124//6
f 116//2 54//2 53//2 121//2
f 121//1 125//1 126//1 122//1
f 59//6 53//6 124//6 127//6
f 121//2 53//2 59//2 125//2
f 125//1 128//1 129//1 126//1
f 62//6 59//6 127//6 130//6
f 125//2 59//2 62//2 128//2
f 128//1 131//1 132//1 129//1
f 65//6 62//6 130//6 133//6
f 128//2 62//2 65//2 131//2
f 131//1 134//1 135//1 132//1
f 68//6 65//6 133//6 136//6
f 131//2 65//2 68//2 134//2
f 134//1 137//1 138//1 135//1
f 71//6 68//6 136//6 139//6
f 134//2 68//2 71//2 137//2
f 137//1 140//1 141//1 138//1
f 137//2 71//2 142//2 140//2
f 140//5 142//5 143//5 141//5
f 119//2 144//2 57//2 54//2
f 54//5 57//5 145//5 123//5
f 119//4 120//4 146//4 144//4
f 71//2 73//2 147//2 142//2
f 142//5 147//5 148//5 143//5
f 71//4 139//4 149//4 73//4
f 144//2 150//2 76//2 57//2
f 57//5 76//5 151//5 145//5
f 144//4 146//4 152//4 150//4
f 73//2 78//2 153//2 147//2
f 147//5 153//5 154//5 148//5
f 73//4 149//4 155//4 78//4
f 150//2 156//2 82//2 76//2
f 76//5 82//5 157//5 151//5
f 150//4 152//4 158//4 156//4
f 78//2 84//2 159//2 153//2
f 153//5 159//5 160//5 154//5
f 78//4 155//4 161//4 84//4
f 156//2 162//2 88//2 82//2
f 82//5 88//5 163//5 157//5
f 156//4 158//4 164//4 162//4
f 84//2 90//2 165//2 159//2
f 159//5 165//5 166//5 160//5
f 84//4 161//4 167//4 90//4
f 162//2 168//2 94//2 88//2
f 88//5 94//5 169//5 163//5
f 162//4 164//4 170//4 168//4
f 90//2 96//2 171//2 165//2
f 165//5 171//5 172//5 166//5
f 90//4 167//4 173//4 96//4
f 168//2 174//2 100//2 94//2
f 94//5 100//5 175//5 169//5
f 168//4 170//4 176//4 174//4
f 96//2 114//2 177//2 171//2
f 171//5 177//5 178//5 172//5
f 96//4 173//4 179//4 114//4
f 180//6 181//6 182//6 183//6
f 174//2 181//2 180//2 100//2
f 174//4 176//4 182//4 181//4
f 100//1 101//1 184//1 175//1
f 185//6 180//6 183//6 186//6
f 100//2 180//2 185//2 101//2
f 101//1 104//1 187//1 184//1
f 188//6 185//6 186//6 189//6
f 101//2 185//2 188//2 104//2
f 104//1 107//1 190//1 187//1
f 191//6 188//6 189//6 192//6
f 104//2 188//2 191//2 107//2
f 107//1 110//1 193//1 190//1
f 194//6 191//6 192//6 195//6
f 107//2 191//2 194//2 110//2
f 110//1 112//1 196//1 193//1
f 197//6 194//6 195//6 198//6
f 110//2 194//2 197//2 112//2
f 112//1 114//1 179//1 196//1
f 199//6 197//6 198//6 200//6
f 112//2 197//2 199//2 114//2
f 201//6 199//6 200//6 202//6
f 114//2 199//2 201//2 177//2
f 177//5 201//5 202//5 178//5
f 118//1 117//1 203//1 204//1
f 118//4 204//4 205//4 120//4
f 117//1 122//1 206//1 203//1
f 124//6 123//6 207//6 208//6
f 122//1 126//1 209//1 206//1
f 127//6 124//6 208//6 210//6
f 126//1 129//1 211//1 209//1
f 130//6 127//6 210//6 212//6
f 129//1 132//1 213//1 211//1
f 133//6 130//6 212//6 214//6
f 132//1 135//1 215//1 213//1
f 136//6 133//6 214//6 216//6
f 135//1 138//1 217//1 215//1
f 139//6 136//6 216//6 218//6
f 138//1 141//1 219//1 217//1
f 141//5 143//5 220//5 219//5
f 123//5 145//5 221//5 207//5
f 120//4 205//4 222//4 146//4
f 143//5 148//5 223//5 220//5
f 139//4 218//4 224//4 149//4
f 145//5 151//5 225//5 221//5
f 146//4 222//4 226//4 152//4
f 148//5 154//5 227//5 223//5
f 149//4 224//4 228//4 155//4
f 151//5 157//5 229//5 225//5
f 152//4 226//4 230//4 158//4
f 154//5 160//5 231//5 227//5
f 155//4 228//4 232//4 161//4
f 157//5 163//5 233//5 229//5
f 158//4 230//4 234//4 164//4
f 160//5 166//5 235//5 231//5
f 161//4 232//4 236//4 167//4
f 163//5 169//5 237//5 233//5
f 164//4 234//4 238//4 170//4
f 166//5 172//5 239//5 235//5
f 167//4 236//4 240//4 173//4
f 169//5 175//5 241//5 237//5
f 170//4 238//4 242//4 176//4
f 172//5 178//5 243//5 239//5
f 173//4 240//4 244//4 179//4
f 183//6 182//6 245//6 246//6
f 176//4 242//4 245//4 182//4
f 175//1 184//1 247//1 241//1
f 186//6 183//6 246//6 248//6
f 184//1 187//1 249//1 247//1
f 189//6 186//6 248//6 250//6
f 187//1 190//1 251//1 249//1
f 192//6 189//6 250//6 252//6
f 190//1 193//1 253//1 251//1
f 195//6 192//6 252//6 254//6
f 193//1 196//1 255//1 253//1
f 198//6 195//6 254//6 256//6
f 196//1 179//1 244//1 255//1
f 200//6 198//6 256//6 257//6
f 202//6 200//6 257//6 258//6
f 178//5 202//5 258//5 243//5
f 204//1 203//1 259//1 260//1
f 204//4 260//4 261//4 205//4
f 203//1 206//1 262//1 259//1
f 208//6 207//6 263//6 264//6
f 206//1 209//1 265//1 262//1
f 210//6 208//6 264//6 266//6
f 209//1 211//1 267//1 265//1
f 212//6 210//6 266//6 268//6
f 211//1 213//1 269//1 267//1
f 214//6 212//6 268//6 270//6
f 213//1 215//1 271//1 269//1
f 216//6 214//6 270//6 272//6
f 215//1 217//1 273//1 271//1
f 218//6 216//6 272//6 274//6
f 217//1 219//1 275//1 273//1
f 219//5 220//5 276//5 275//5
f 207//5 221//5 277//5 263//5
f 205//4 261//4 278//4 222//4
f 220//5 223//5 279//5 276//5
f 218//4 274//4 280//4 224//4
f 221//5 225//5 281//5 277//5
f 222//4 278//4 282//4 226//4
f 223//5 227//5 283//5 279//5
f 224//4 280//4 284//4 228//4
f 225//5 229//5 285//5 281//5
f 226//4 282//4 286//4 230//4
f 227//5 231//5 287//5 283//5
f 228//4 284//4 288//4 232//4
f 229//5 233//5 289//5 285//5
f 230//4 286//4 290//4 234//4
f 231//5 235//5 291//5 287//5
f 232//4 288//4 292//4 236//4
f 233//5 237//5 293//5 289//5
f 234//4 290//4 294//4 238//4
f 235//5 239//5 295//5 291//5
f 236//4 292//4 296//4 240//4
f 237//5 241//5 297//5 293//5
f 238//4 294//4 298//4 242//4
f 239//5 243//5 299//5 295//5
f 240//4 296//4 300//4 244//4
f 246//6 245//6 301//6 302//6
f 242//4 298//4 301//4 245//4
f 241//1 247//1 303//1 297//1
f 248//6 246//6 302//6 304//6
f 247//1 249//1 305//1 303//1
f 250//6 248//6 304//6 306//6
f 249//1 251//1 307//1 305//1
f 252//6 250//6 306//6 308//6
f 251//1 253//1 309//1 307//1
f 254//6 252//6 308//6 310//6
f 253//1 255//1 311//1 309//1
f 256//6 254//6 310//6 312//6
f 255//1 244//1 300//1 311//1
f 257//6 256//6 312//6 313//6
f 258//6 257//6 313//6 314//6
f 243//5 258//5 314//5 299//5
f 260//1 259//1 315//1 316//1
f 315//3 317//3 318//3 316//3
f 260//4 316//4 318//4 261//4
f 259//1 262//1 319//1 315//1
f 264//6 263//6 317//6 320//6
f 319//3 320//3 317//3 315//3
f 262//1 265//1 321//1 319//1
f 266//6 264//6 320//6 322//6
f 321//3 322//3 320//3 319//3
f 265//1 267//1 323//1 321//1
f 268//6 266//6 322//6 324//6
f 323//3 324//3 322//3 321//3
f 267//1 269//1 325//1 323//1
f 270//6 268//6 324//6 326//6
f 325//3 326//3 324//3 323//3
f 269//1 271//1 327//1 325//1
f 272//6 270//6 326//6 328//6
f 327//3 328//3 326//3 325//3
f 271//1 273//1 329//1 327//1
f 274//6 272//6 328//6 330//6
f 329//3 330//3 328//3 327//3
f 273//1 275//1 331//1 329//1
f 331//3 332//3 330//3 329//3
f 275//5 276//5 332//5 331//5
f 317//3 333//3 334//3 318//3
f 263//5 277//5 333//5 317//5
f 261//4 318//4 334//4 278//4
f 332//3 335//3 336//3 330//3
f 276//5 279//5 335//5 332//5
f 274//4 330//4 336//4 280//4
f 333//3 337//3 338//3 334//3
f 277//5 281//5 337//5 333//5
f 278//4 334//4 338//4 282//4
f 335//3 339//3 340//3 336//3
f 279//5 283//5 339//5 335//5
f 280//4 336//4 340//4 284//4
f 337//3 341//3 342//3 338//3
f 281//5 285//5 341//5 337//5
f 282//4 338//4 342//4 286//4
f 339//3 343//3 344//3 340//3
f 283//5 287//5 343//5 339//5
f 284//4 340//4 344//4 288//4
f 341//3 345//3 346//3 342//3
f 285//5 289//5 345//5 341//5
f 286//4 342//4 346//4 290//4
f 343//3 347//3 348//3 344//3
f 287//5 291//5 347//5 343//5
f 288//4 344//4 348//4 292//4
f 345//3 349//3 350//3 346//3
f 289//5 293//5 349//5 345//5
f 290//4 346//4 350//4 294//4
f 347//3 351//3 352//3 348//3
f 291//5 295//5 351//5 347//5
f 292//4 348//4 352//4 296//4
f 349//3 353//3 354//3 350//3
f 293//5 297//5 353//5 349//5
f 294//4 350//4 354//4 298//4
f 351//3 355//3 356//3 352//3
f 295//5 299//5 355//5 351//5
f 296//4 352//4 356//4 300//4
f 302//6 301//6 357//6 358//6
f 353//3 358//3 357//3 354//3
f 298//4 354//4 357//4 301//4
f 297//1 303//1 359//1 353//1
f 304//6 302//6 358//6 360//6
f 359//3 360//3 358//3 353//3
f 303//1 305//1 361//1 359//1
f 306//6 304//6 360//6 362//6
f 361//3 362//3 360//3 359//3
f 305//1 307//1 363//1 361//1
f 308//6 306//6 362//6 364//6
f 363//3 364//3 362//3 361//3
f 307//1 309//1 365//1 363//1
f 310//6 308//6 364//6 366//6
f 365//3 366//3 364//3 363//3
f 309//1 311//1 367//1 365//1
f 312//6 310//6 366//6 368//6
f 367//3 368//3 366//3 365//3
f 311//1 300//1 356//1 367//1
f 313//6 312//6 368//6 369//6
f 356//3 369//3 368//3 367//3
f 314//6 313//6 369//6 370//6
f 355//3 370//3 369//3 356//3
f 299//5 314//5 370//5 355//5
