# Goxel 0.15.2
v -14 0 14 1.000000 1.000000 1.000000
v -13 0 14 1.000000 1.000000 1.000000
v -13 1 14 1.000000 1.000000 1.000000
v -14 1 14 1.000000 1.000000 1.000000
v -14 0 13 1.000000 1.000000 1.000000
v -13 0 13 1.000000 1.000000 1.000000
v -14 1 13 1.000000 1.000000 1.000000
v -12 0 14 1.000000 1.000000 1.000000
v -12 1 14 1.000000 1.000000 1.000000
v -12 0 13 1.000000 1.000000 1.000000
v -11 0 14 1.000000 1.000000 1.000000
v -11 1 14 1.000000 1.000000 1.000000
v -11 0 13 1.000000 1.000000 1.000000
v -10 0 14 1.000000 1.000000 1.000000
v -10 1 14 1.000000 1.000000 1.000000
v -10 0 13 1.000000 1.000000 1.000000
v -10 1 13 1.000000 1.000000 1.000000
v -14 0 12 1.000000 1.000000 1.000000
v -13 0 12 1.000000 1.000000 1.000000
v -14 1 12 1.000000 1.000000 1.000000
v -12 0 12 1.000000 1.000000 1.000000
v -12 1 13 1.000000 1.000000 1.000000
v -12 1 12 1.000000 1.000000 1.000000
v -13 1 12 1.000000 1.000000 1.000000
v -13 1 13 1.000000 1.000000 1.000000
v -11 0 12 1.000000 1.000000 1.000000
v -11 1 13 1.000000 1.000000 1.000000
v -11 1 12 1.000000 1.000000 1.000000
v -10 0 12 1.000000 1.000000 1.000000
v -10 1 12 1.000000 1.000000 1.000000
v -14 0 11 1.000000 1.000000 1.000000
v -13 0 11 1.000000 1.000000 1.000000
v -14 1 11 1.000000 1.000000 1.000000
v -12 0 11 1.000000 1.000000 1.000000
v -12 1 11 1.000000 1.000000 1.000000
v -13 1 11 1.000000 1.000000 1.000000
v -11 0 11 1.000000 1.000000 1.000000
v -11 1 11 1.000000 1.000000 1.000000
v -10 0 11 1.000000 1.000000 1.000000
v -10 1 11 1.000000 1.000000 1.000000
v -13 0 10 1.000000 1.000000 1.000000
v -14 0 10 1.000000 1.000000 1.000000
v -14 1 10 1.000000 1.000000 1.000000
v -13 1 10 1.000000 1.000000 1.000000
v -12 0 10 1.000000 1.000000 1.000000
v -12 1 10 1.000000 1.000000 1.000000
v -11 0 10 1.000000 1.000000 1.000000
v -11 1 10 1.000000 1.000000 1.000000
v -10 0 10 1.000000 1.000000 1.000000
v -10 1 10 1.000000 1.000000 1.000000
v -13 2 14 1.000000 1.000000 1.000000
v -14 2 14 1.000000 1.000000 1.000000
v -14 2 13 1.000000 1.000000 1.000000
v -12 2 14 1.000000 1.000000 1.000000
v -13 2 13 1.000000 1.000000 1.000000
v -12 2 13 1.000000 1.000000 1.000000
v -11 2 14 1.000000 1.000000 1.000000
v -11 2 13 1.000000 1.000000 1.000000
v -10 2 14 1.000000 1.000000 1.000000
v -10 2 13 1.000000 1.000000 1.000000
v -13 2 12 1.000000 1.000000 1.000000
v -14 2 12 1.000000 1.000000 1.000000
v -10 2 12 1.000000 1.000000 1.000000
v -11 2 12 1.000000 1.000000 1.000000
v -13 2 11 1.000000 1.000000 1.000000
v -14 2 11 1.000000 1.000000 1.000000
v -10 2 11 1.000000 1.000000 1.000000
v -11 2 11 1.000000 1.000000 1.000000
v -14 2 10 1.000000 1.000000 1.000000
v -13 2 10 1.000000 1.000000 1.000000
v -12 2 11 1.000000 1.000000 1.000000
v -12 2 10 1.000000 1.000000 1.000000
v -11 2 10 1.000000 1.000000 1.000000
v -10 2 10 1.000000 1.000000 1.000000
v -13 3 14 1.000000 1.000000 1.000000
v -14 3 14 1.000000 1.000000 1.000000
v -14 3 13 1.000000 1.000000 1.000000
v -12 3 14 1.000000 1.000000 1.000000
v -13 3 13 1.000000 1.000000 1.000000
v -12 3 13 1.000000 1.000000 1.000000
v -11 3 14 1.000000 1.000000 1.000000
v -11 3 13 1.000000 1.000000 1.000000
v -10 3 14 1.000000 1.000000 1.000000
v -10 3 13 1.000000 1.000000 1.000000
v -13 3 12 1.000000 1.000000 1.000000
v -14 3 12 1.000000 1.000000 1.000000
v -10 3 12 1.000000 1.000000 1.000000
v -11 3 12 1.000000 1.000000 1.000000
v -13 3 11 1.000000 1.000000 1.000000
v -14 3 11 1.000000 1.000000 1.000000
v -10 3 11 1.000000 1.000000 1.000000
v -11 3 11 1.000000 1.000000 1.000000
v -14 3 10 1.000000 1.000000 1.000000
v -13 3 10 1.000000 1.000000 1.000000
v -12 3 11 1.000000 1.000000 1.000000
v -12 3 10 1.000000 1.000000 1.000000
v -11 3 10 1.000000 1.000000 1.000000
v -10 3 10 1.000000 1.000000 1.000000
v -13 4 14 1.000000 1.000000 1.000000
v -14 4 14 1.000000 1.000000 1.000000
v -13 4 13 1.000000 1.000000 1.000000
v -14 4 13 1.000000 1.000000 1.000000
v -12 4 14 1.000000 1.000000 1.000000
v -12 4 13 1.000000 1.000000 1.000000
v -11 4 14 1.000000 1.000000 1.000000
v -11 4 13 1.000000 1.000000 1.000000
v -10 4 14 1.000000 1.000000 1.000000
v -10 4 13 1.000000 1.000000 1.000000
v -13 4 12 1.000000 1.000000 1.000000
v -14 4 12 1.000000 1.000000 1.000000
v -10 4 12 1.000000 1.000000 1.000000
v -11 4 12 1.000000 1.000000 1.000000
v -13 4 11 1.000000 1.000000 1.000000
v -14 4 11 1.000000 1.000000 1.000000
v -10 4 11 1.000000 1.000000 1.000000
v -11 4 11 1.000000 1.000000 1.000000
v -14 4 10 1.000000 1.000000 1.000000
v -13 4 10 1.000000 1.000000 1.000000
v -12 4 11 1.000000 1.000000 1.000000
v -12 4 10 1.000000 1.000000 1.000000
v -11 4 10 1.000000 1.000000 1.000000
v -10 4 10 1.000000 1.000000 1.000000
vn 0 0 1
vn 0 -1 0
vn -1 0 0
vn 1 0 0
vn 0 1 0
vn 0 0 -1
f 1//1 2//1 3//1 4//1
f 1//2 5//2 6//2 2//2
f 1//3 4//3 7//3 5//3
f 2//1 8//1 9//1 3//1
f 2//2 6//2 10//2 8//2
f 8//1 11//1 12//1 9//1
f 8//2 10//2 13//2 11//2
f 11//1 14//1 15//1 12//1
f 11//2 13//2 16//2 14//2
f 14//4 16//4 17//4 15//4
f 5//2 18//2 19//2 6//2
f 5//3 7//3 20//3 18//3
f 6//2 19//2 21//2 10//2
f 22//5 23//5 24//5 25//5
f 10//2 21//2 26//2 13//2
f 27//5 28//5 23//5 22//5
f 13//2 26//2 29//2 16//2
f 16//4 29//4 30//4 17//4
f 18//2 31//2 32//2 19//2
f 18//3 20//3 33//3 31//3
f 19//2 32//2 34//2 21//2
f 23//5 35//5 36//5 24//5
f 21//2 34//2 37//2 26//2
f 28//5 38//5 35//5 23//5
f 26//2 37//2 39//2 29//2
f 29//4 39//4 40//4 30//4
f 41//6 42//6 43//6 44//6
f 31//2 42//2 41//2 32//2
f 31//3 33//3 43//3 42//3
f 45//6 41//6 44//6 46//6
f 32//2 41//2 45//2 34//2
f 47//6 45//6 46//6 48//6
f 34//2 45//2 47//2 37//2
f 49//6 47//6 48//6 50//6
f 37//2 47//2 49//2 39//2
f 39//4 49//4 50//4 40//4
f 4//1 3//1 51//1 52//1
f 4//3 52//3 53//3 7//3
f 3//1 9//1 54//1 51//1
f 22//6 25//6 55//6 56//6
f 9//1 12//1 57//1 54//1
f 27//6 22//6 56//6 58//6
f 12//1 15//1 59//1 57//1
f 15//4 17//4 60//4 59//4
f 25//4 24//4 61//4 55//4
f 7//3 53//3 62//3 20//3
f 17//4 30//4 63//4 60//4
f 27//3 58//3 64//3 28//3
f 24//4 36//4 65//4 61//4
f 20//3 62//3 66//3 33//3
f 30//4 40//4 67//4 63//4
f 28//3 64//3 68//3 38//3
f 44//6 43//6 69//6 70//6
f 33//3 66//3 69//3 43//3
f 36//1 35//1 71//1 65//1
f 46//6 44//6 70//6 72//6
f 35//1 38//1 68//1 71//1
f 48//6 46//6 72//6 73//6
f 50//6 48//6 73//6 74//6
f 40//4 50//4 74//4 67//4
f 52//1 51//1 75//1 76//1
f 52//3 76//3 77//3 53//3
f 51//1 54//1 78//1 75//1
f 56//6 55//6 79//6 80//6
f 54//1 57//1 81//1 78//1
f 58//6 56//6 80//6 82//6
f 57//1 59//1 83//1 81//1
f 59//4 60//4 84//4 83//4
f 55//4 61//4 85//4 79//4
f 53//3 77//3 86//3 62//3
f 60//4 63//4 87//4 84//4
f 58//3 82//3 88//3 64//3
f 61//4 65//4 89//4 85//4
f 62//3 86//3 90//3 66//3
f 63//4 67//4 91//4 87//4
f 64//3 88//3 92//3 68//3
f 70//6 69//6 93//6 94//6
f 66//3 90//3 93//3 69//3
f 65//1 71//1 95//1 89//1
f 72//6 70//6 94//6 96//6
f 71//1 68//1 92//1 95//1
f 73//6 72//6 96//6 97//6
f 74//6 73//6 97//6 98//6
f 67//4 74//4 98//4 91//4
f 76//1 75//1 99//1 100//1
f 99//5 101//5 102//5 100//5
f 76//3 100//3 102//3 77//3
f 75//1 78//1 103//1 99//1
f 80//6 79//6 101//6 104//6
f 103//5 104//5 101//5 99//5
f 78//1 81//1 105//1 103//1
f 82//6 80//6 104//6 106//6
f 105//5 106//5 104//5 103//5
f 81//1 83//1 107//1 105//1
f 107//5 108//5 106//5 105//5
f 83//4 84//4 108//4 107//4
f 101//5 109//5 110//5 102//5
f 79//4 85//4 109//4 101//4
f 77//3 102//3 110//3 86//3
f 108//5 111//5 112//5 106//5
f 84//4 87//4 111//4 108//4
f 82//3 106//3 112//3 88//3
f 109//5 113//5 114//5 110//5
f 85//4 89//4 113//4 109//4
f 86//3 110//3 114//3 90//3
f 111//5 115//5 116//5 112//5
f 87//4 91//4 115//4 111//4
f 88//3 112//3 116//3 92//3
f 94//6 93//6 117//6 118//6
f 113//5 118//5 117//5 114//5
f 90//3 114//3 117//3 93//3
f 89//1 95//1 119//1 113//1
f 96//6 94//6 118//6 120//6
f 119//5 120//5 118//5 113//5
f 95//1 92//1 116//1 119//1
f 97//6 96//6 120//6 121//6
f 116//5 121//5 120//5 119//5
f 98//6 97//6 121//6 122//6
f 115//5 122//5 121//5 116//5
f 91//4 98//4 122//4 115//4
