# Goxel 0.15.2
v -15 0 15 1.000000 1.000000 1.000000
v -14 0 15 1.000000 1.000000 1.000000
v -14 1 15 1.000000 1.000000 1.000000
v -15 1 15 1.000000 1.000000 1.000000
v -15 0 14 1.000000 1.000000 1.000000
v -14 0 14 1.000000 1.000000 1.000000
v -14 1 14 1.000000 1.000000 1.000000
v -15 1 14 1.000000 1.000000 1.000000
v -13 0 15 1.000000 1.000000 1.000000
v -13 1 15 1.000000 1.000000 1.000000
v -13 0 14 1.000000 1.000000 1.000000
v -13 1 14 1.000000 1.000000 1.000000
v -12 0 15 1.000000 1.000000 1.000000
v -12 1 15 1.000000 1.000000 1.000000
v -12 0 14 1.000000 1.000000 1.000000
v -12 1 14 1.000000 1.000000 1.000000
v -11 0 15 1.000000 1.000000 1.000000
v -11 1 15 1.000000 1.000000 1.000000
v -11 0 14 1.000000 1.000000 1.000000
v -11 1 14 1.000000 1.000000 1.000000
v -10 0 15 1.000000 1.000000 1.000000
v -10 1 15 1.000000 1.000000 1.000000
v -10 0 14 1.000000 1.000000 1.000000
v -10 1 14 1.000000 1.000000 1.000000
v -9 0 15 1.000000 1.000000 1.000000
v -9 1 15 1.000000 1.000000 1.000000
v -9 0 14 1.000000 1.000000 1.000000
v -9 1 14 1.000000 1.000000 1.000000
v -15 0 13 1.000000 1.000000 1.000000
v -14 0 13 1.000000 1.000000 1.000000
v -14 1 13 1.000000 1.000000 1.000000
v -15 1 13 1.000000 1.000000 1.000000
v -13 0 13 1.000000 1.000000 1.000000
v -13 1 13 1.000000 1.000000 1.000000
v -12 0 13 1.000000 1.000000 1.000000
v -12 1 13 1.000000 1.000000 1.000000
v -11 0 13 1.000000 1.000000 1.000000
v -11 1 13 1.000000 1.000000 1.000000
v -10 0 13 1.000000 1.000000 1.000000
v -10 1 13 1.000000 1.000000 1.000000
v -9 0 13 1.000000 1.000000 1.000000
v -9 1 13 1.000000 1.000000 1.000000
v -15 0 12 1.000000 1.000000 1.000000
v -14 0 12 1.000000 1.000000 1.000000
v -14 1 12 1.000000 1.000000 1.000000
v -15 1 12 1.000000 1.000000 1.000000
v -13 0 12 1.000000 1.000000 1.000000
v -13 1 12 1.000000 1.000000 1.000000
v -12 0 12 1.000000 1.000000 1.000000
v -12 1 12 1.000000 1.000000 1.000000
v -11 0 12 1.000000 1.000000 1.000000
v -11 1 12 1.000000 1.000000 1.000000
v -10 0 12 1.000000 1.000000 1.000000
v -10 1 12 1.000000 1.000000 1.000000
v -9 0 12 1.000000 1.000000 1.000000
v -9 1 12 1.000000 1.000000 1.000000
v -15 0 11 1.000000 1.000000 1.000000
v -14 0 11 1.000000 1.000000 1.000000
v -14 1 11 1.000000 1.000000 1.000000
v -15 1 11 1.000000 1.000000 1.000000
v -13 0 11 1.000000 1.000000 1.000000
v -13 1 11 1.000000 1.000000 1.000000
v -12 0 11 1.000000 1.000000 1.000000
v -12 1 11 1.000000 1.000000 1.000000
v -11 0 11 1.000000 1.000000 1.000000
v -11 1 11 1.000000 1.000000 1.000000
v -10 0 11 1.000000 1.000000 1.000000
v -10 1 11 1.000000 1.000000 1.000000
v -9 0 11 1.000000 1.000000 1.000000
v -9 1 11 1.000000 1.000000 1.000000
v -15 0 10 1.000000 1.000000 1.000000
v -14 0 10 1.000000 1.000000 1.000000
v -14 1 10 1.000000 1.000000 1.000000
v -15 1 10 1.000000 1.000000 1.000000
v -13 0 10 1.000000 1.000000 1.000000
v -13 1 10 1.000000 1.000000 1.000000
v -12 0 10 1.000000 1.000000 1.000000
v -12 1 10 1.000000 1.000000 1.000000
v -11 0 10 1.000000 1.000000 1.000000
v -11 1 10 1.000000 1.000000 1.000000
v -10 0 10 1.000000 1.000000 1.000000
v -10 1 10 1.000000 1.000000 1.000000
v -9 0 10 1.000000 1.000000 1.000000
v -9 1 10 1.000000 1.000000 1.000000
v -14 0 9 1.000000 1.000000 1.000000
v -15 0 9 1.000000 1.000000 1.000000
v -15 1 9 1.000000 1.000000 1.000000
v -14 1 9 1.000000 1.000000 1.000000
v -13 0 9 1.000000 1.000000 1.000000
v -13 1 9 1.000000 1.000000 1.000000
v -12 0 9 1.000000 1.000000 1.000000
v -12 1 9 1.000000 1.000000 1.000000
v -11 0 9 1.000000 1.000000 1.000000
v -11 1 9 1.000000 1.000000 1.000000
v -10 0 9 1.000000 1.000000 1.000000
v -10 1 9 1.000000 1.000000 1.000000
v -9 0 9 1.000000 1.000000 1.000000
v -9 1 9 1.000000 1.000000 1.000000
v -16 1 16 1.000000 1.000000 1.000000
v -15 1 16 1.000000 1.000000 1.000000
v -15 2 16 1.000000 1.000000 1.000000
v -16 2 16 1.000000 1.000000 1.000000
v -16 1 15 1.000000 1.000000 1.000000
v -15 2 15 1.000000 1.000000 1.000000
v -16 2 15 1.000000 1.000000 1.000000
v -14 1 16 1.000000 1.000000 1.000000
v -14 2 16 1.000000 1.000000 1.000000
v -14 2 15 1.000000 1.000000 1.000000
v -13 1 16 1.000000 1.000000 1.000000
v -13 2 16 1.000000 1.000000 1.000000
v -13 2 15 1.000000 1.000000 1.000000
v -12 1 16 1.000000 1.000000 1.000000
v -12 2 16 1.000000 1.000000 1.000000
v -12 2 15 1.000000 1.000000 1.000000
v -11 1 16 1.000000 1.000000 1.000000
v -11 2 16 1.000000 1.000000 1.000000
v -11 2 15 1.000000 1.000000 1.000000
v -10 1 16 1.000000 1.000000 1.000000
v -10 2 16 1.000000 1.000000 1.000000
v -10 2 15 1.000000 1.000000 1.000000
v -9 1 16 1.000000 1.000000 1.000000
v -9 2 16 1.000000 1.000000 1.000000
v -9 2 15 1.000000 1.000000 1.000000
v -8 1 16 1.000000 1.000000 1.000000
v -8 2 16 1.000000 1.000000 1.000000
v -8 1 15 1.000000 1.000000 1.000000
v -8 2 15 1.000000 1.000000 1.000000
v -16 1 14 1.000000 1.000000 1.000000
v -15 2 14 1.000000 1.000000 1.000000
v -16 2 14 1.000000 1.000000 1.000000
v -8 1 14 1.000000 1.000000 1.000000
v -8 2 14 1.000000 1.000000 1.000000
v -9 2 14 1.000000 1.000000 1.000000
v -16 1 13 1.000000 1.000000 1.000000
v -15 2 13 1.000000 1.000000 1.000000
v -16 2 13 1.000000 1.000000 1.000000
v -8 1 13 1.000000 1.000000 1.000000
v -8 2 13 1.000000 1.000000 1.000000
v -9 2 13 1.000000 1.000000 1.000000
v -16 1 12 1.000000 1.000000 1.000000
v -15 2 12 1.000000 1.000000 1.000000
v -16 2 12 1.000000 1.000000 1.000000
v -8 1 12 1.000000 1.000000 1.000000
v -8 2 12 1.000000 1.000000 1.000000
v -9 2 12 1.000000 1.000000 1.000000
v -16 1 11 1.000000 1.000000 1.000000
v -15 2 11 1.000000 1.000000 1.000000
v -16 2 11 1.000000 1.000000 1.000000
v -8 1 11 1.000000 1.000000 1.000000
v -8 2 11 1.000000 1.000000 1.000000
v -9 2 11 1.000000 1.000000 1.000000
v -16 1 10 1.000000 1.000000 1.000000
v -15 2 10 1.000000 1.000000 1.000000
v -16 2 10 1.000000 1.000000 1.000000
v -8 1 10 1.000000 1.000000 1.000000
v -8 2 10 1.000000 1.000000 1.000000
v -9 2 10 1.000000 1.000000 1.000000
v -16 1 9 1.000000 1.000000 1.000000
v -15 2 9 1.000000 1.000000 1.000000
v -16 2 9 1.000000 1.000000 1.000000
v -8 1 9 1.000000 1.000000 1.000000
v -8 2 9 1.000000 1.000000 1.000000
v -9 2 9 1.000000 1.000000 1.000000
v -15 1 8 1.000000 1.000000 1.000000
v -16 1 8 1.000000 1.000000 1.000000
v -16 2 8 1.000000 1.000000 1.000000
v -15 2 8 1.000000 1.000000 1.000000
v -14 2 9 1.000000 1.000000 1.000000
v -14 1 8 1.000000 1.000000 1.000000
v -14 2 8 1.000000 1.000000 1.000000
v -13 2 9 1.000000 1.000000 1.000000
v -13 1 8 1.000000 1.000000 1.000000
v -13 2 8 1.000000 1.000000 1.000000
v -12 2 9 1.000000 1.000000 1.000000
v -12 1 8 1.000000 1.000000 1.000000
v -12 2 8 1.000000 1.000000 1.000000
v -11 2 9 1.000000 1.000000 1.000000
v -11 1 8 1.000000 1.000000 1.000000
v -11 2 8 1.000000 1.000000 1.000000
v -10 2 9 1.000000 1.000000 1.000000
v -10 1 8 1.000000 1.000000 1.000000
v -10 2 8 1.000000 1.000000 1.000000
v -9 1 8 1.000000 1.000000 1.000000
v -9 2 8 1.000000 1.000000 1.000000
v -8 1 8 1.000000 1.000000 1.000000
v -8 2 8 1.000000 1.000000 1.000000
vn 0 0 1
vn 0 -1 0
vn 0 1 0
vn -1 0 0
vn 1 0 0
vn 0 0 -1
f 1//1 2//1 3//1 4//1
f 1//2 5//2 6//2 2//2
f 3//3 7//3 8//3 4//3
f 1//4 4//4 8//4 5//4
f 2//1 9//1 10//1 3//1
f 2//2 6//2 11//2 9//2
f 10//3 12//3 7//3 3//3
f 9//1 13//1 14//1 10//1
f 9//2 11//2 15//2 13//2
f 14//3 16//3 12//3 10//3
f 13//1 17//1 18//1 14//1
f 13//2 15//2 19//2 17//2
f 18//3 20//3 16//3 14//3
f 17//1 21//1 22//1 18//1
f 17//2 19//2 23//2 21//2
f 22//3 24//3 20//3 18//3
f 21//1 25//1 26//1 22//1
f 21//2 23//2 27//2 25//2
f 26//3 28//3 24//3 22//3
f 25//5 27//5 28//5 26//5
f 5//2 29//2 30//2 6//2
f 7//3 31//3 32//3 8//3
f 5//4 8//4 32//4 29//4
f 6//2 30//2 33//2 11//2
f 12//3 34//3 31//3 7//3
f 11//2 33//2 35//2 15//2
f 16//3 36//3 34//3 12//3
f 15//2 35//2 37//2 19//2
f 20//3 38//3 36//3 16//3
f 19//2 37//2 39//2 23//2
f 24//3 40//3 38//3 20//3
f 23//2 39//2 41//2 27//2
f 28//3 42//3 40//3 24//3
f 27//5 41//5 42//5 28//5
f 29//2 43//2 44//2 30//2
f 31//3 45//3 46//3 32//3
f 29//4 32//4 46//4 43//4
f 30//2 44//2 47//2 33//2
f 34//3 48//3 45//3 31//3
f 33//2 47//2 49//2 35//2
f 36//3 50//3 48//3 34//3
f 35//2 49//2 51//2 37//2
f 38//3 52//3 50//3 36//3
f 37//2 51//2 53//2 39//2
f 40//3 54//3 52//3 38//3
f 39//2 53//2 55//2 41//2
f 42//3 56//3 54//3 40//3
f 41//5 55//5 56//5 42//5
f 43//2 57//2 58//2 44//2
f 45//3 59//3 60//3 46//3
f 43//4 46//4 60//4 57//4
f 44//2 58//2 61//2 47//2
f 48//3 62//3 59//3 45//3
f 47//2 61//2 63//2 49//2
f 50//3 64//3 62//3 48//3
f 49//2 63//2 65//2 51//2
f 52//3 66//3 64//3 50//3
f 51//2 65//2 67//2 53//2
f 54//3 68//3 66//3 52//3
f 53//2 67//2 69//2 55//2
f 56//3 70//3 68//3 54//3
f 55//5 69//5 70//5 56//5
f 57//2 71//2 72//2 58//2
f 59//3 73//3 74//3 60//3
f 57//4 60//4 74//4 71//4
f 58//2 72//2 75//2 61//2
f 62//3 76//3 73//3 59//3
f 61//2 75//2 77//2 63//2
f 64//3 78//3 76//3 62//3
f 63//2 77//2 79//2 65//2
f 66//3 80//3 78//3 64//3
f 65//2 79//2 81//2 67//2
f 68//3 82//3 80//3 66//3
f 67//2 81//2 83//2 69//2
f 70//3 84//3 82//3 68//3
f 69//5 83//5 84//5 70//5
f 85//6 86//6 87//6 88//6
f 71//2 86//2 85//2 72//2
f 73//3 88//3 87//3 74//3
f 71//4 74//4 87//4 86//4
f 89//6 85//6 88//6 90//6
f 72//2 85//2 89//2 75//2
f 76//3 90//3 88//3 73//3
f 91//6 89//6 90//6 92//6
f 75//2 89//2 91//2 77//2
f 78//3 92//3 90//3 76//3
f 93//6 91//6 92//6 94//6
f 77//2 91//2 93//2 79//2
f 80//3 94//3 92//3 78//3
f 95//6 93//6 94//6 96//6
f 79//2 93//2 95//2 81//2
f 82//3 96//3 94//3 80//3
f 97//6 95//6 96//6 98//6
f 81//2 95//2 97//2 83//2
f 84//3 98//3 96//3 82//3
f 83//5 97//5 98//5 84//5
f 99//1 100//1 101//1 102//1
f 99//2 103//2 4//2 100//2
f 101//3 104//3 105//3 102//3
f 99//4 102//4 105//4 103//4
f 100//1 106//1 107//1 101//1
f 3//6 4//6 104//6 108//6
f 100//2 4//2 3//2 106//2
f 107//3 108//3 104//3 101//3
f 106//1 109//1 110//1 107//1
f 10//6 3//6 108//6 111//6
f 106//2 3//2 10//2 109//2
f 110//3 111//3 108//3 107//3
f 109//1 112//1 113//1 110//1
f 14//6 10//6 111//6 114//6
f 109//2 10//2 14//2 112//2
f 113//3 114//3 111//3 110//3
f 112//1 115//1 116//1 113//1
f 18//6 14//6 114//6 117//6
f 112//2 14//2 18//2 115//2
f 116//3 117//3 114//3 113//3
f 115//1 118//1 119//1 116//1
f 22//6 18//6 117//6 120//6
f 115//2 18//2 22//2 118//2
f 119//3 120//3 117//3 116//3
f 118//1 121//1 122//1 119//1
f 26//6 22//6 120//6 123//6
f 118//2 22//2 26//2 121//2
f 122//3 123//3 120//3 119//3
f 121//1 124//1 125//1 122//1
f 121//2 26//2 126//2 124//2
f 125//3 127//3 123//3 122//3
f 124//5 126//5 127//5 125//5
f 103//2 128//2 8//2 4//2
f 104//3 129//3 130//3 105//3
f 4//5 8//5 129//5 104//5
f 103//4 105//4 130//4 128//4
f 26//2 28//2 131//2 126//2
f 127//3 132//3 133//3 123//3
f 126//5 131//5 132//5 127//5
f 26//4 123//4 133//4 28//4
f 128//2 134//2 32//2 8//2
f 129//3 135//3 136//3 130//3
f 8//5 32//5 135//5 129//5
f 128//4 130//4 136//4 134//4
f 28//2 42//2 137//2 131//2
f 132//3 138//3 139//3 133//3
f 131//5 137//5 138//5 132//5
f 28//4 133//4 139//4 42//4
f 134//2 140//2 46//2 32//2
f 135//3 141//3 142//3 136//3
f 32//5 46//5 141//5 135//5
f 134//4 136//4 142//4 140//4
f 42//2 56//2 143//2 137//2
f 138//3 144//3 145//3 139//3
f 137//5 143//5 144//5 138//5
f 42//4 139//4 145//4 56//4
f 140//2 146//2 60//2 46//2
f 141//3 147//3 148//3 142//3
f 46//5 60//5 147//5 141//5
f 140//4 142//4 148//4 146//4
f 56//2 70//2 149//2 143//2
f 144//3 150//3 151//3 145//3
f 143//5 149//5 150//5 144//5
f 56//4 145//4 151//4 70//4
f 146//2 152//2 74//2 60//2
f 147//3 153//3 154//3 148//3
f 60//5 74//5 153//5 147//5
f 146//4 148//4 154//4 152//4
f 70//2 84//2 155//2 149//2
f 150//3 156//3 157//3 151//3
f 149//5 155//5 156//5 150//5
f 70//4 151//4 157//4 84//4
f 152//2 158//2 87//2 74//2
f 153//3 159//3 160//3 154//3
f 74//5 87//5 159//5 153//5
f 152//4 154//4 160//4 158//4
f 84//2 98//2 161//2 155//2
f 156//3 162//3 163//3 157//3
f 155//5 161//5 162//5 156//5
f 84//4 157//4 163//4 98//4
f 164//6 165//6 166//6 167//6
f 158//2 165//2 164//2 87//2
f 159//3 167//3 166//3 160//3
f 158//4 160//4 166//4 165//4
f 87//1 88//1 168//1 159//1
f 169//6 164//6 167//6 170//6
f 87//2 164//2 169//2 88//2
f 168//3 170//3 167//3 159//3
f 88//1 90//1 171//1 168//1
f 172//6 169//6 170//6 173//6
f 88//2 169//2 172//2 90//2
f 171//3 173//3 170//3 168//3
f 90//1 92//1 174//1 171//1
f 175//6 172//6 173//6 176//6
f 90//2 172//2 175//2 92//2
f 174//3 176//3 173//3 171//3
f 92//1 94//1 177//1 174//1
f 178//6 175//6 176//6 179//6
f 92//2 175//2 178//2 94//2
f 177//3 179//3 176//3 174//3
f 94//1 96//1 180//1 177//1
f 181//6 178//6 179//6 182//6
f 94//2 178//2 181//2 96//2
f 180//3 182//3 179//3 177//3
f 96//1 98//1 163//1 180//1
f 183//6 181//6 182//6 184//6
f 96//2 181//2 183//2 98//2
f 163//3 184//3 182//3 180//3
f 185//6 183//6 184//6 186//6
f 98//2 183//2 185//2 161//2
f 162//3 186//3 184//3 163//3
f 161//5 185//5 186//5 162//5
