# Goxel 0.15.2
v -14 0 15 1.000000 1.000000 1.000000
v -13 0 15 1.000000 1.000000 1.000000
v -13 1 15 1.000000 1.000000 1.000000
v -14 1 15 1.000000 1.000000 1.000000
v -14 0 14 1.000000 1.000000 1.000000
v -13 0 14 1.000000 1.000000 1.000000
v -13 1 14 1.000000 1.000000 1.000000
v -14 1 14 1.000000 1.000000 1.000000
v -12 0 15 1.000000 1.000000 1.000000
v -12 1 15 1.000000 1.000000 1.000000
v -12 0 14 1.000000 1.000000 1.000000
v -12 1 14 1.000000 1.000000 1.000000
v -11 0 15 1.000000 1.000000 1.000000
v -11 1 15 1.000000 1.000000 1.000000
v -11 0 14 1.000000 1.000000 1.000000
v -11 1 14 1.000000 1.000000 1.000000
v -15 0 14 1.000000 1.000000 1.000000
v -15 1 14 1.000000 1.000000 1.000000
v -15 0 13 1.000000 1.000000 1.000000
v -14 0 13 1.000000 1.000000 1.000000
v -14 1 13 1.000000 1.000000 1.000000
v -15 1 13 1.000000 1.000000 1.000000
v -13 0 13 1.000000 1.000000 1.000000
v -13 1 13 1.000000 1.000000 1.000000
v -12 0 13 1.000000 1.000000 1.000000
v -12 1 13 1.000000 1.000000 1.000000
v -11 0 13 1.000000 1.000000 1.000000
v -11 1 13 1.000000 1.000000 1.000000
v -10 0 14 1.000000 1.000000 1.000000
v -10 1 14 1.000000 1.000000 1.000000
v -10 0 13 1.000000 1.000000 1.000000
v -10 1 13 1.000000 1.000000 1.000000
v -15 0 12 1.000000 1.000000 1.000000
v -14 0 12 1.000000 1.000000 1.000000
v -14 1 12 1.000000 1.000000 1.000000
v -15 1 12 1.000000 1.000000 1.000000
v -13 0 12 1.000000 1.000000 1.000000
v -13 1 12 1.000000 1.000000 1.000000
v -12 0 12 1.000000 1.000000 1.000000
v -12 1 12 1.000000 1.000000 1.000000
v -11 0 12 1.000000 1.000000 1.000000
v -11 1 12 1.000000 1.000000 1.000000
v -10 0 12 1.000000 1.000000 1.000000
v -10 1 12 1.000000 1.000000 1.000000
v -14 0 11 1.000000 1.000000 1.000000
v -15 0 11 1.000000 1.000000 1.000000
v -15 1 11 1.000000 1.000000 1.000000
v -14 1 11 1.000000 1.000000 1.000000
v -13 0 11 1.000000 1.000000 1.000000
v -13 1 11 1.000000 1.000000 1.000000
v -12 0 11 1.000000 1.000000 1.000000
v -12 1 11 1.000000 1.000000 1.000000
v -11 0 11 1.000000 1.000000 1.000000
v -11 1 11 1.000000 1.000000 1.000000
v -10 0 11 1.000000 1.000000 1.000000
v -10 1 11 1.000000 1.000000 1.000000
v -13 0 10 1.000000 1.000000 1.000000
v -14 0 10 1.000000 1.000000 1.000000
v -14 1 10 1.000000 1.000000 1.000000
v -13 1 10 1.000000 1.000000 1.000000
v -12 0 10 1.000000 1.000000 1.000000
v -12 1 10 1.000000 1.000000 1.000000
v -11 0 10 1.000000 1.000000 1.000000
v -11 1 10 1.000000 1.000000 1.000000
v -14 1 16 1.000000 1.000000 1.000000
v -13 1 16 1.000000 1.000000 1.000000
v -13 2 16 1.000000 1.000000 1.000000
v -14 2 16 1.000000 1.000000 1.000000
v -14 2 15 1.000000 1.000000 1.000000
v -13 2 15 1.000000 1.000000 1.000000
v -12 1 16 1.000000 1.000000 1.000000
v -12 2 16 1.000000 1.000000 1.000000
v -12 2 15 1.000000 1.000000 1.000000
v -11 1 16 1.000000 1.000000 1.000000
v -11 2 16 1.000000 1.000000 1.000000
v -11 2 15 1.000000 1.000000 1.000000
v -15 1 15 1.000000 1.000000 1.000000
v -15 2 15 1.000000 1.000000 1.000000
v -15 2 14 1.000000 1.000000 1.000000
v -14 2 14 1.000000 1.000000 1.000000
v -10 1 15 1.000000 1.000000 1.000000
v -10 2 15 1.000000 1.000000 1.000000
v -11 2 14 1.000000 1.000000 1.000000
v -10 2 14 1.000000 1.000000 1.000000
v -16 1 14 1.000000 1.000000 1.000000
v -16 2 14 1.000000 1.000000 1.000000
v -16 1 13 1.000000 1.000000 1.000000
v -15 2 13 1.000000 1.000000 1.000000
v -16 2 13 1.000000 1.000000 1.000000
v -9 1 14 1.000000 1.000000 1.000000
v -9 2 14 1.000000 1.000000 1.000000
v -9 1 13 1.000000 1.000000 1.000000
v -9 2 13 1.000000 1.000000 1.000000
v -10 2 13 1.000000 1.000000 1.000000
v -16 1 12 1.000000 1.000000 1.000000
v -15 2 12 1.000000 1.000000 1.000000
v -16 2 12 1.000000 1.000000 1.000000
v -9 1 12 1.000000 1.000000 1.000000
v -9 2 12 1.000000 1.000000 1.000000
v -10 2 12 1.000000 1.000000 1.000000
v -16 1 11 1.000000 1.000000 1.000000
v -16 2 11 1.000000 1.000000 1.000000
v -15 2 11 1.000000 1.000000 1.000000
v -9 1 11 1.000000 1.000000 1.000000
v -10 2 11 1.000000 1.000000 1.000000
v -9 2 11 1.000000 1.000000 1.000000
v -14 2 11 1.000000 1.000000 1.000000
v -15 1 10 1.000000 1.000000 1.000000
v -15 2 10 1.000000 1.000000 1.000000
v -14 2 10 1.000000 1.000000 1.000000
v -11 2 11 1.000000 1.000000 1.000000
v -10 1 10 1.000000 1.000000 1.000000
v -11 2 10 1.000000 1.000000 1.000000
v -10 2 10 1.000000 1.000000 1.000000
v -13 2 10 1.000000 1.000000 1.000000
v -13 1 9 1.000000 1.000000 1.000000
v -14 1 9 1.000000 1.000000 1.000000
v -14 2 9 1.000000 1.000000 1.000000
v -13 2 9 1.000000 1.000000 1.000000
v -12 2 10 1.000000 1.000000 1.000000
v -12 1 9 1.000000 1.000000 1.000000
v -12 2 9 1.000000 1.000000 1.000000
v -11 1 9 1.000000 1.000000 1.000000
v -11 2 9 1.000000 1.000000 1.000000
v -13 3 16 1.000000 1.000000 1.000000
v -14 3 16 1.000000 1.000000 1.000000
v -14 3 15 1.000000 1.000000 1.000000
v -13 3 15 1.000000 1.000000 1.000000
v -12 3 16 1.000000 1.000000 1.000000
v -12 3 15 1.000000 1.000000 1.000000
v -11 3 16 1.000000 1.000000 1.000000
v -11 3 15 1.000000 1.000000 1.000000
v -15 3 15 1.000000 1.000000 1.000000
v -15 3 14 1.000000 1.000000 1.000000
v -14 3 14 1.000000 1.000000 1.000000
v -10 3 15 1.000000 1.000000 1.000000
v -11 3 14 1.000000 1.000000 1.000000
v -10 3 14 1.000000 1.000000 1.000000
v -16 3 14 1.000000 1.000000 1.000000
v -15 3 13 1.000000 1.000000 1.000000
v -16 3 13 1.000000 1.000000 1.000000
v -9 3 14 1.000000 1.000000 1.000000
v -9 3 13 1.000000 1.000000 1.000000
v -10 3 13 1.000000 1.000000 1.000000
v -15 3 12 1.000000 1.000000 1.000000
v -16 3 12 1.000000 1.000000 1.000000
v -9 3 12 1.000000 1.000000 1.000000
v -10 3 12 1.000000 1.000000 1.000000
v -16 3 11 1.000000 1.000000 1.000000
v -15 3 11 1.000000 1.000000 1.000000
v -10 3 11 1.000000 1.000000 1.000000
v -9 3 11 1.000000 1.000000 1.000000
v -14 3 11 1.000000 1.000000 1.000000
v -15 3 10 1.000000 1.000000 1.000000
v -14 3 10 1.000000 1.000000 1.000000
v -11 3 11 1.000000 1.000000 1.000000
v -11 3 10 1.000000 1.000000 1.000000
v -10 3 10 1.000000 1.000000 1.000000
v -13 3 10 1.000000 1.000000 1.000000
v -14 3 9 1.000000 1.000000 1.000000
v -13 3 9 1.000000 1.000000 1.000000
v -12 3 10 1.000000 1.000000 1.000000
v -12 3 9 1.000000 1.000000 1.000000
v -11 3 9 1.000000 1.000000 1.000000
v -13 4 16 1.000000 1.000000 1.000000
v -14 4 16 1.000000 1.000000 1.000000
v -14 4 15 1.000000 1.000000 1.000000
v -13 4 15 1.000000 1.000000 1.000000
v -12 4 16 1.000000 1.000000 1.000000
v -12 4 15 1.000000 1.000000 1.000000
v -11 4 16 1.000000 1.000000 1.000000
v -11 4 15 1.000000 1.000000 1.000000
v -15 4 15 1.000000 1.000000 1.000000
v -15 4 14 1.000000 1.000000 1.000000
v -14 4 14 1.000000 1.000000 1.000000
v -10 4 15 1.000000 1.000000 1.000000
v -11 4 14 1.000000 1.000000 1.000000
v -10 4 14 1.000000 1.000000 1.000000
v -16 4 14 1.000000 1.000000 1.000000
v -15 4 13 1.000000 1.000000 1.000000
v -16 4 13 1.000000 1.000000 1.000000
v -9 4 14 1.000000 1.000000 1.000000
v -9 4 13 1.000000 1.000000 1.000000
v -10 4 13 1.000000 1.000000 1.000000
v -15 4 12 1.000000 1.000000 1.000000
v -16 4 12 1.000000 1.000000 1.000000
v -9 4 12 1.000000 1.000000 1.000000
v -10 4 12 1.000000 1.000000 1.000000
v -16 4 11 1.000000 1.000000 1.000000
v -15 4 11 1.000000 1.000000 1.000000
v -10 4 11 1.000000 1.000000 1.000000
v -9 4 11 1.000000 1.000000 1.000000
v -14 4 11 1.000000 1.000000 1.000000
v -15 4 10 1.000000 1.000000 1.000000
v -14 4 10 1.000000 1.000000 1.000000
v -11 4 11 1.000000 1.000000 1.000000
v -11 4 10 1.000000 1.000000 1.000000
v -10 4 10 1.000000 1.000000 1.000000
v -13 4 10 1.000000 1.000000 1.000000
v -14 4 9 1.000000 1.000000 1.000000
v -13 4 9 1.000000 1.000000 1.000000
v -12 4 10 1.000000 1.000000 1.000000
v -12 4 9 1.000000 1.000000 1.000000
v -11 4 9 1.000000 1.000000 1.000000
v -9 3 10 1.000000 1.000000 1.000000
v -9 4 10 1.000000 1.000000 1.000000
v -9 3 9 1.000000 1.000000 1.000000
v -10 3 9 1.000000 1.000000 1.000000
v -10 4 9 1.000000 1.000000 1.000000
v -9 4 9 1.000000 1.000000 1.000000
v -8 3 9 1.000000 1.000000 1.000000
v -8 4 9 1.000000 1.000000 1.000000
v -8 3 8 1.000000 1.000000 1.000000
v -9 3 8 1.000000 1.000000 1.000000
v -9 4 8 1.000000 1.000000 1.000000
v -8 4 8 1.000000 1.000000 1.000000
vn 0 0 1
vn 0 -1 0
vn 0 1 0
vn -1 0 0
vn 1 0 0
vn 0 0 -1
f 1//1 2//1 3//1 4//1
f 1//2 5//2 6//2 2//2
f 3//3 7//3 8//3 4//3
f 1//4 4//4 8//4 5//4
f 2//1 9//1 10//1 3//1
f 2//2 6//2 11//2 9//2
f 10//3 12//3 7//3 3//3
f 9//1 13//1 14//1 10//1
f 9//2 11//2 15//2 13//2
f 14//3 16//3 12//3 10//3
f 13//5 15//5 16//5 14//5
f 17//1 5//1 8//1 18//1
f 17//2 19//2 20//2 5//2
f 8//3 21//3 22//3 18//3
f 17//4 18//4 22//4 19//4
f 5//2 20//2 23//2 6//2
f 7//3 24//3 21//3 8//3
f 6//2 23//2 25//2 11//2
f 12//3 26//3 24//3 7//3
f 11//2 25//2 27//2 15//2
f 16//3 28//3 26//3 12//3
f 15//1 29//1 30//1 16//1
f 15//2 27//2 31//2 29//2
f 30//3 32//3 28//3 16//3
f 29//5 31//5 32//5 30//5
f 19//2 33//2 34//2 20//2
f 21//3 35//3 36//3 22//3
f 19//4 22//4 36//4 33//4
f 20//2 34//2 37//2 23//2
f 24//3 38//3 35//3 21//3
f 23//2 37//2 39//2 25//2
f 26//3 40//3 38//3 24//3
f 25//2 39//2 41//2 27//2
f 28//3 42//3 40//3 26//3
f 27//2 41//2 43//2 31//2
f 32//3 44//3 42//3 28//3
f 31//5 43//5 44//5 32//5
f 45//6 46//6 47//6 48//6
f 33//2 46//2 45//2 34//2
f 35//3 48//3 47//3 36//3
f 33//4 36//4 47//4 46//4
f 34//2 45//2 49//2 37//2
f 38//3 50//3 48//3 35//3
f 37//2 49//2 51//2 39//2
f 40//3 52//3 50//3 38//3
f 39//2 51//2 53//2 41//2
f 42//3 54//3 52//3 40//3
f 55//6 53//6 54//6 56//6
f 41//2 53//2 55//2 43//2
f 44//3 56//3 54//3 42//3
f 43//5 55//5 56//5 44//5
f 57//6 58//6 59//6 60//6
f 45//2 58//2 57//2 49//2
f 50//3 60//3 59//3 48//3
f 45//4 48//4 59//4 58//4
f 61//6 57//6 60//6 62//6
f 49//2 57//2 61//2 51//2
f 52//3 62//3 60//3 50//3
f 63//6 61//6 62//6 64//6
f 51//2 61//2 63//2 53//2
f 54//3 64//3 62//3 52//3
f 53//5 63//5 64//5 54//5
f 65//1 66//1 67//1 68//1
f 3//6 4//6 69//6 70//6
f 65//2 4//2 3//2 66//2
f 65//4 68//4 69//4 4//4
f 66//1 71//1 72//1 67//1
f 10//6 3//6 70//6 73//6
f 66//2 3//2 10//2 71//2
f 71//1 74//1 75//1 72//1
f 14//6 10//6 73//6 76//6
f 71//2 10//2 14//2 74//2
f 74//5 14//5 76//5 75//5
f 77//1 4//1 69//1 78//1
f 8//6 18//6 79//6 80//6
f 77//2 18//2 8//2 4//2
f 4//5 8//5 80//5 69//5
f 77//4 78//4 79//4 18//4
f 14//1 81//1 82//1 76//1
f 30//6 16//6 83//6 84//6
f 14//2 16//2 30//2 81//2
f 81//5 30//5 84//5 82//5
f 14//4 76//4 83//4 16//4
f 85//1 18//1 79//1 86//1
f 85//2 87//2 22//2 18//2
f 18//5 22//5 88//5 79//5
f 85//4 86//4 89//4 87//4
f 30//1 90//1 91//1 84//1
f 30//2 32//2 92//2 90//2
f 90//5 92//5 93//5 91//5
f 30//4 84//4 94//4 32//4
f 87//2 95//2 36//2 22//2
f 22//5 36//5 96//5 88//5
f 87//4 89//4 97//4 95//4
f 32//2 44//2 98//2 92//2
f 92//5 98//5 99//5 93//5
f 32//4 94//4 100//4 44//4
f 47//6 101//6 102//6 103//6
f 95//2 101//2 47//2 36//2
f 36//5 47//5 103//5 96//5
f 95//4 97//4 102//4 101//4
f 104//6 56//6 105//6 106//6
f 44//2 56//2 104//2 98//2
f 98//5 104//5 106//5 99//5
f 44//4 100//4 105//4 56//4
f 47//1 48//1 107//1 103//1
f 59//6 108//6 109//6 110//6
f 47//2 108//2 59//2 48//2
f 48//5 59//5 110//5 107//5
f 47//4 103//4 109//4 108//4
f 54//1 56//1 105//1 111//1
f 112//6 64//6 113//6 114//6
f 54//2 64//2 112//2 56//2
f 56//5 112//5 114//5 105//5
f 54//4 111//4 113//4 64//4
f 59//1 60//1 115//1 110//1
f 116//6 117//6 118//6 119//6
f 59//2 117//2 116//2 60//2
f 59//4 110//4 118//4 117//4
f 60//1 62//1 120//1 115//1
f 121//6 116//6 119//6 122//6
f 60//2 116//2 121//2 62//2
f 62//1 64//1 113//1 120//1
f 123//6 121//6 122//6 124//6
f 62//2 121//2 123//2 64//2
f 64//5 123//5 124//5 113//5
f 68//1 67//1 125//1 126//1
f 70//6 69//6 127//6 128//6
f 68//4 126//4 127//4 69//4
f 67//1 72//1 129//1 125//1
f 73//6 70//6 128//6 130//6
f 72//1 75//1 131//1 129//1
f 76//6 73//6 130//6 132//6
f 75//5 76//5 132//5 131//5
f 78//1 69//1 127//1 133//1
f 80//6 79//6 134//6 135//6
f 69//5 80//5 135//5 127//5
f 78//4 133//4 134//4 79//4
f 76//1 82//1 136//1 132//1
f 84//6 83//6 137//6 138//6
f 82//5 84//5 138//5 136//5
f 76//4 132//4 137//4 83//4
f 86//1 79//1 134//1 139//1
f 79//5 88//5 140//5 134//5
f 86//4 139//4 141//4 89//4
f 84//1 91//1 142//1 138//1
f 91//5 93//5 143//5 142//5
f 84//4 138//4 144//4 94//4
f 88//5 96//5 145//5 140//5
f 89//4 141//4 146//4 97//4
f 93//5 99//5 147//5 143//5
f 94//4 144//4 148//4 100//4
f 103//6 102//6 149//6 150//6
f 96//5 103//5 150//5 145//5
f 97//4 146//4 149//4 102//4
f 106//6 105//6 151//6 152//6
f 99//5 106//5 152//5 147//5
f 100//4 148//4 151//4 105//4
f 103//1 107//1 153//1 150//1
f 110//6 109//6 154//6 155//6
f 107//5 110//5 155//5 153//5
f 103//4 150//4 154//4 109//4
f 111//1 105//1 151//1 156//1
f 114//6 113//6 157//6 158//6
f 105//5 114//5 158//5 151//5
f 111//4 156//4 157//4 113//4
f 110//1 115//1 159//1 155//1
f 119//6 118//6 160//6 161//6
f 110//4 155//4 160//4 118//4
f 115//1 120//1 162//1 159//1
f 122//6 119//6 161//6 163//6
f 120//1 113//1 157//1 162//1
f 124//6 122//6 163//6 164//6
f 113//5 124//5 164//5 157//5
f 126//1 125//1 165//1 166//1
f 128//6 127//6 167//6 168//6
f 165//3 168//3 167//3 166//3
f 126//4 166//4 167//4 127//4
f 125//1 129//1 169//1 165//1
f 130//6 128//6 168//6 170//6
f 169//3 170//3 168//3 165//3
f 129//1 131//1 171//1 169//1
f 132//6 130//6 170//6 172//6
f 171//3 172//3 170//3 169//3
f 131//5 132//5 172//5 171//5
f 133//1 127//1 167//1 173//1
f 135//6 134//6 174//6 175//6
f 167//3 175//3 174//3 173//3
f 127//5 135//5 175//5 167//5
f 133//4 173//4 174//4 134//4
f 132//1 136//1 176//1 172//1
f 138//6 137//6 177//6 178//6
f 176//3 178//3 177//3 172//3
f 136//5 138//5 178//5 176//5
f 132//4 172//4 177//4 137//4
f 139//1 134//1 174//1 179//1
f 174//3 180//3 181//3 179//3
f 134//5 140//5 180//5 174//5
f 139//4 179//4 181//4 141//4
f 138//1 142//1 182//1 178//1
f 182//3 183//3 184//3 178//3
f 142//5 143//5 183//5 182//5
f 138//4 178//4 184//4 144//4
f 180//3 185//3 186//3 181//3
f 140//5 145//5 185//5 180//5
f 141//4 181//4 186//4 146//4
f 183//3 187//3 188//3 184//3
f 143//5 147//5 187//5 183//5
f 144//4 184//4 188//4 148//4
f 150//6 149//6 189//6 190//6
f 185//3 190//3 189//3 186//3
f 145//5 150//5 190//5 185//5
f 146//4 186//4 189//4 149//4
f 152//6 151//6 191//6 192//6
f 187//3 192//3 191//3 188//3
f 147//5 152//5 192//5 187//5
f 148//4 188//4 191//4 151//4
f 150//1 153//1 193//1 190//1
f 155//6 154//6 194//6 195//6
f 193//3 195//3 194//3 190//3
f 153//5 155//5 195//5 193//5
f 150//4 190//4 194//4 154//4
f 156//1 151//1 191//1 196//1
f 158//6 157//6 197//6 198//6
f 191//3 198//3 197//3 196//3
f 151//5 158//5 198//5 191//5
f 156//4 196//4 197//4 157//4
f 155//1 159//1 199//1 195//1
f 161//6 160//6 200//6 201//6
f 199//3 201//3 200//3 195//3
f 155//4 195//4 200//4 160//4
f 159//1 162//1 202//1 199//1
f 163//6 161//6 201//6 203//6
f 202//3 203//3 201//3 199//3
f 162//1 157//1 197//1 202//1
f 164//6 163//6 203//6 204//6
f 197//3 204//3 203//3 202//3
f 157//5 164//5 204//5 197//5
f 158//1 205//1 206//1 198//1
f 207//6 208//6 209//6 210//6
f 158//2 208//2 207//2 205//2
f 206//3 210//3 209//3 198//3
f 205//5 207//5 210//5 206//5
f 158//4 198//4 209//4 208//4
f 207//1 211//1 212//1 210//1
f 213//6 214//6 215//6 216//6
f 207//2 214//2 213//2 211//2
f 212//3 216//3 215//3 210//3
f 211//5 213//5 216//5 212//5
f 207//4 210//4 215//4 214//4
