# Goxel 0.15.2
v -14 0 15 1.000000 1.000000 1.000000
v -13 0 15 1.000000 1.000000 1.000000
v -13 1 15 1.000000 1.000000 1.000000
v -14 1 15 1.000000 1.000000 1.000000
v -14 0 14 1.000000 1.000000 1.000000
v -13 0 14 1.000000 1.000000 1.000000
v -13 1 14 1.000000 1.000000 1.000000
v -14 1 14 1.000000 1.000000 1.000000
v -12 0 15 1.000000 1.000000 1.000000
v -12 1 15 1.000000 1.000000 1.000000
v -12 0 14 1.000000 1.000000 1.000000
v -12 1 14 1.000000 1.000000 1.000000
v -11 0 15 1.000000 1.000000 1.000000
v -11 1 15 1.000000 1.000000 1.000000
v -11 0 14 1.000000 1.000000 1.000000
v -11 1 14 1.000000 1.000000 1.000000
v -15 0 14 1.000000 1.000000 1.000000
v -15 1 14 1.000000 1.000000 1.000000
v -15 0 13 1.000000 1.000000 1.000000
v -14 0 13 1.000000 1.000000 1.000000
v -14 1 13 1.000000 1.000000 1.000000
v -15 1 13 1.000000 1.000000 1.000000
v -13 0 13 1.000000 1.000000 1.000000
v -13 1 13 1.000000 1.000000 1.000000
v -12 0 13 1.000000 1.000000 1.000000
v -12 1 13 1.000000 1.000000 1.000000
v -11 0 13 1.000000 1.000000 1.000000
v -11 1 13 1.000000 1.000000 1.000000
v -10 0 14 1.000000 1.000000 1.000000
v -10 1 14 1.000000 1.000000 1.000000
v -10 0 13 1.000000 1.000000 1.000000
v -10 1 13 1.000000 1.000000 1.000000
v -15 0 12 1.000000 1.000000 1.000000
v -14 0 12 1.000000 1.000000 1.000000
v -14 1 12 1.000000 1.000000 1.000000
v -15 1 12 1.000000 1.000000 1.000000
v -13 0 12 1.000000 1.000000 1.000000
v -13 1 12 1.000000 1.000000 1.000000
v -12 0 12 1.000000 1.000000 1.000000
v -12 1 12 1.000000 1.000000 1.000000
v -11 0 12 1.000000 1.000000 1.000000
v -11 1 12 1.000000 1.000000 1.000000
v -10 0 12 1.000000 1.000000 1.000000
v -10 1 12 1.000000 1.000000 1.000000
v -14 0 11 1.000000 1.000000 1.000000
v -15 0 11 1.000000 1.000000 1.000000
v -15 1 11 1.000000 1.000000 1.000000
v -14 1 11 1.000000 1.000000 1.000000
v -13 0 11 1.000000 1.000000 1.000000
v -13 1 11 1.000000 1.000000 1.000000
v -12 0 11 1.000000 1.000000 1.000000
v -12 1 11 1.000000 1.000000 1.000000
v -11 0 11 1.000000 1.000000 1.000000
v -11 1 11 1.000000 1.000000 1.000000
v -10 0 11 1.000000 1.000000 1.000000
v -10 1 11 1.000000 1.000000 1.000000
v -13 0 10 1.000000 1.000000 1.000000
v -14 0 10 1.000000 1.000000 1.000000
v -14 1 10 1.000000 1.000000 1.000000
v -13 1 10 1.000000 1.000000 1.000000
v -12 0 10 1.000000 1.000000 1.000000
v -12 1 10 1.000000 1.000000 1.000000
v -11 0 10 1.000000 1.000000 1.000000
v -11 1 10 1.000000 1.000000 1.000000
v -14 1 16 1.000000 1.000000 1.000000
v -13 1 16 1.000000 1.000000 1.000000
v -13 2 16 1.000000 1.000000 1.000000
v -14 2 16 1.000000 1.000000 1.000000
v -14 2 15 1.000000 1.000000 1.000000
v -13 2 15 1.000000 1.000000 1.000000
v -12 1 16 1.000000 1.000000 1.000000
v -12 2 16 1.000000 1.000000 1.000000
v -12 2 15 1.000000 1.000000 1.000000
v -11 1 16 1.000000 1.000000 1.000000
v -11 2 16 1.000000 1.000000 1.000000
v -11 2 15 1.000000 1.000000 1.000000
v -15 1 15 1.000000 1.000000 1.000000
v -15 2 15 1.000000 1.000000 1.000000
v -15 2 14 1.000000 1.000000 1.000000
v -14 2 14 1.000000 1.000000 1.000000
v -10 1 15 1.000000 1.000000 1.000000
v -10 2 15 1.000000 1.000000 1.000000
v -11 2 14 1.000000 1.000000 1.000000
v -10 2 14 1.000000 1.000000 1.000000
v -16 1 14 1.000000 1.000000 1.000000
v -16 2 14 1.000000 1.000000 1.000000
v -16 1 13 1.000000 1.000000 1.000000
v -15 2 13 1.000000 1.000000 1.000000
v -16 2 13 1.000000 1.000000 1.000000
v -9 1 14 1.000000 1.000000 1.000000
v -9 2 14 1.000000 1.000000 1.000000
v -9 1 13 1.000000 1.000000 1.000000
v -9 2 13 1.000000 1.000000 1.000000
v -10 2 13 1.000000 1.000000 1.000000
v -16 1 12 1.000000 1.000000 1.000000
v -15 2 12 1.000000 1.000000 1.000000
v -16 2 12 1.000000 1.000000 1.000000
v -9 1 12 1.000000 1.000000 1.000000
v -9 2 12 1.000000 1.000000 1.000000
v -10 2 12 1.000000 1.000000 1.000000
v -16 1 11 1.000000 1.000000 1.000000
v -16 2 11 1.000000 1.000000 1.000000
v -15 2 11 1.000000 1.000000 1.000000
v -9 1 11 1.000000 1.000000 1.000000
v -10 2 11 1.000000 1.000000 1.000000
v -9 2 11 1.000000 1.000000 1.000000
v -14 2 11 1.000000 1.000000 1.000000
v -15 1 10 1.000000 1.000000 1.000000
v -15 2 10 1.000000 1.000000 1.000000
v -14 2 10 1.000000 1.000000 1.000000
v -11 2 11 1.000000 1.000000 1.000000
v -10 1 10 1.000000 1.000000 1.000000
v -11 2 10 1.000000 1.000000 1.000000
v -10 2 10 1.000000 1.000000 1.000000
v -13 2 10 1.000000 1.000000 1.000000
v -13 1 9 1.000000 1.000000 1.000000
v -14 1 9 1.000000 1.000000 1.000000
v -14 2 9 1.000000 1.000000 1.000000
v -13 2 9 1.000000 1.000000 1.000000
v -12 2 10 1.000000 1.000000 1.000000
v -12 1 9 1.000000 1.000000 1.000000
v -12 2 9 1.000000 1.000000 1.000000
v -11 1 9 1.000000 1.000000 1.000000
v -11 2 9 1.000000 1.000000 1.000000
v -9 1 10 1.000000 1.000000 1.000000
v -9 2 10 1.000000 1.000000 1.000000
v -9 1 9 1.000000 1.000000 1.000000
v -10 1 9 1.000000 1.000000 1.000000
v -10 2 9 1.000000 1.000000 1.000000
v -9 2 9 1.000000 1.000000 1.000000
v -8 1 9 1.000000 1.000000 1.000000
v -8 2 9 1.000000 1.000000 1.000000
v -8 1 8 1.000000 1.000000 1.000000
v -9 1 8 1.000000 1.000000 1.000000
v -9 2 8 1.000000 1.000000 1.000000
v -8 2 8 1.000000 1.000000 1.000000
vn 0 0 1
vn 0 -1 0
vn 0 1 0
vn -1 0 0
vn 1 0 0
vn 0 0 -1
f 1//1 2//1 3//1 4//1
f 1//2 5//2 6//2 2//2
f 3//3 7//3 8//3 4//3
f 1//4 4//4 8//4 5//4
f 2//1 9//1 10//1 3//1
f 2//2 6//2 11//2 9//2
f 10//3 12//3 7//3 3//3
f 9//1 13//1 14//1 10//1
f 9//2 11//2 15//2 13//2
f 14//3 16//3 12//3 10//3
f 13//5 15//5 16//5 14//5
f 17//1 5//1 8//1 18//1
f 17//2 19//2 20//2 5//2
f 8//3 21//3 22//3 18//3
f 17//4 18//4 22//4 19//4
f 5//2 20//2 23//2 6//2
f 7//3 24//3 21//3 8//3
f 6//2 23//2 25//2 11//2
f 12//3 26//3 24//3 7//3
f 11//2 25//2 27//2 15//2
f 16//3 28//3 26//3 12//3
f 15//1 29//1 30//1 16//1
f 15//2 27//2 31//2 29//2
f 30//3 32//3 28//3 16//3
f 29//5 31//5 32//5 30//5
f 19//2 33//2 34//2 20//2
f 21//3 35//3 36//3 22//3
f 19//4 22//4 36//4 33//4
f 20//2 34//2 37//2 23//2
f 24//3 38//3 35//3 21//3
f 23//2 37//2 39//2 25//2
f 26//3 40//3 38//3 24//3
f 25//2 39//2 41//2 27//2
f 28//3 42//3 40//3 26//3
f 27//2 41//2 43//2 31//2
f 32//3 44//3 42//3 28//3
f 31//5 43//5 44//5 32//5
f 45//6 46//6 47//6 48//6
f 33//2 46//2 45//2 34//2
f 35//3 48//3 47//3 36//3
f 33//4 36//4 47//4 46//4
f 34//2 45//2 49//2 37//2
f 38//3 50//3 48//3 35//3
f 37//2 49//2 51//2 39//2
f 40//3 52//3 50//3 38//3
f 39//2 51//2 53//2 41//2
f 42//3 54//3 52//3 40//3
f 55//6 53//6 54//6 56//6
f 41//2 53//2 55//2 43//2
f 44//3 56//3 54//3 42//3
f 43//5 55//5 56//5 44//5
f 57//6 58//6 59//6 60//6
f 45//2 58//2 57//2 49//2
f 50//3 60//3 59//3 48//3
f 45//4 48//4 59//4 58//4
f 61//6 57//6 60//6 62//6
f 49//2 57//2 61//2 51//2
f 52//3 62//3 60//3 50//3
f 63//6 61//6 62//6 64//6
f 51//2 61//2 63//2 53//2
f 54//3 64//3 62//3 52//3
f 53//5 63//5 64//5 54//5
f 65//1 66//1 67//1 68//1
f 3//6 4//6 69//6 70//6
f 65//2 4//2 3//2 66//2
f 67//3 70//3 69//3 68//3
f 65//4 68//4 69//4 4//4
f 66//1 71//1 72//1 67//1
f 10//6 3//6 70//6 73//6
f 66//2 3//2 10//2 71//2
f 72//3 73//3 70//3 67//3
f 71//1 74//1 75//1 72//1
f 14//6 10//6 73//6 76//6
f 71//2 10//2 14//2 74//2
f 75//3 76//3 73//3 72//3
f 74//5 14//5 76//5 75//5
f 77//1 4//1 69//1 78//1
f 8//6 18//6 79//6 80//6
f 77//2 18//2 8//2 4//2
f 69//3 80//3 79//3 78//3
f 4//5 8//5 80//5 69//5
f 77//4 78//4 79//4 18//4
f 14//1 81//1 82//1 76//1
f 30//6 16//6 83//6 84//6
f 14//2 16//2 30//2 81//2
f 82//3 84//3 83//3 76//3
f 81//5 30//5 84//5 82//5
f 14//4 76//4 83//4 16//4
f 85//1 18//1 79//1 86//1
f 85//2 87//2 22//2 18//2
f 79//3 88//3 89//3 86//3
f 18//5 22//5 88//5 79//5
f 85//4 86//4 89//4 87//4
f 30//1 90//1 91//1 84//1
f 30//2 32//2 92//2 90//2
f 91//3 93//3 94//3 84//3
f 90//5 92//5 93//5 91//5
f 30//4 84//4 94//4 32//4
f 87//2 95//2 36//2 22//2
f 88//3 96//3 97//3 89//3
f 22//5 36//5 96//5 88//5
f 87//4 89//4 97//4 95//4
f 32//2 44//2 98//2 92//2
f 93//3 99//3 100//3 94//3
f 92//5 98//5 99//5 93//5
f 32//4 94//4 100//4 44//4
f 47//6 101//6 102//6 103//6
f 95//2 101//2 47//2 36//2
f 96//3 103//3 102//3 97//3
f 36//5 47//5 103//5 96//5
f 95//4 97//4 102//4 101//4
f 104//6 56//6 105//6 106//6
f 44//2 56//2 104//2 98//2
f 99//3 106//3 105//3 100//3
f 98//5 104//5 106//5 99//5
f 44//4 100//4 105//4 56//4
f 47//1 48//1 107//1 103//1
f 59//6 108//6 109//6 110//6
f 47//2 108//2 59//2 48//2
f 107//3 110//3 109//3 103//3
f 48//5 59//5 110//5 107//5
f 47//4 103//4 109//4 108//4
f 54//1 56//1 105//1 111//1
f 112//6 64//6 113//6 114//6
f 54//2 64//2 112//2 56//2
f 105//3 114//3 113//3 111//3
f 56//5 112//5 114//5 105//5
f 54//4 111//4 113//4 64//4
f 59//1 60//1 115//1 110//1
f 116//6 117//6 118//6 119//6
f 59//2 117//2 116//2 60//2
f 115//3 119//3 118//3 110//3
f 59//4 110//4 118//4 117//4
f 60//1 62//1 120//1 115//1
f 121//6 116//6 119//6 122//6
f 60//2 116//2 121//2 62//2
f 120//3 122//3 119//3 115//3
f 62//1 64//1 113//1 120//1
f 123//6 121//6 122//6 124//6
f 62//2 121//2 123//2 64//2
f 113//3 124//3 122//3 120//3
f 64//5 123//5 124//5 113//5
f 112//1 125//1 126//1 114//1
f 127//6 128//6 129//6 130//6
f 112//2 128//2 127//2 125//2
f 126//3 130//3 129//3 114//3
f 125//5 127//5 130//5 126//5
f 112//4 114//4 129//4 128//4
f 127//1 131//1 132//1 130//1
f 133//6 134//6 135//6 136//6
f 127//2 134//2 133//2 131//2
f 132//3 136//3 135//3 130//3
f 131//5 133//5 136//5 132//5
f 127//4 130//4 135//4 134//4
